<svg width="708" height="704" viewBox="0 0 708 704" fill="none" xmlns="http://www.w3.org/2000/svg">
<path d="M227.481 113.006C270.456 97.152 299.739 128.213 320.738 161.92C335.168 185.068 349.738 211.538 374.731 225.055C403.759 240.754 438.762 226.181 468.385 220.31C503.898 213.27 536.763 224.28 559.306 253.468C608.682 317.349 577.969 419.612 513.994 461.852C508.353 465.563 502.505 468.952 496.478 472.004C408.686 516.511 281.926 517.679 215.445 435.79C210.619 429.837 206.223 423.551 202.29 416.979C193.794 402.801 187.62 387.228 182.537 371.571C166.664 322.601 156.058 269.336 160.575 217.705C164.256 175.535 186.912 128.001 227.481 113.006Z" fill="#003B1E"/>
<path opacity="0.9" d="M227.481 113.006C270.456 97.152 299.739 128.213 320.738 161.92C335.168 185.068 349.738 211.538 374.731 225.055C403.759 240.754 438.762 226.181 468.385 220.31C503.898 213.27 536.763 224.28 559.306 253.468C608.682 317.349 577.969 419.612 513.994 461.852C508.353 465.563 502.505 468.952 496.478 472.004C408.686 516.511 281.926 517.679 215.445 435.79C210.619 429.837 206.223 423.551 202.29 416.979C193.794 402.801 187.62 387.228 182.537 371.571C166.664 322.601 156.058 269.336 160.575 217.705C164.256 175.535 186.912 128.001 227.481 113.006Z" fill="white"/>
<path d="M354 602.004C505.629 602.004 628.549 594.868 628.549 586.066C628.549 577.263 505.629 570.127 354 570.127C202.372 570.127 79.4521 577.263 79.4521 586.066C79.4521 594.868 202.372 602.004 354 602.004Z" fill="#F5F5F5"/>
<path d="M121.776 548.458C121.776 548.458 113.577 532.506 122.951 516.792C132.325 501.079 135.029 497.362 129.054 494.138C123.078 490.913 120.36 506.725 120.36 506.725C120.36 506.725 115.333 495.855 119.482 484.479C123.631 473.102 126.25 454.573 120.572 452.587C114.894 450.602 119.482 475.707 114.568 484.253C112.074 478.296 110.453 472.013 109.754 465.597C109.074 456.459 110.136 441.873 105.647 438.127C101.159 434.382 98.2983 436.973 102.702 457.135C105.35 469.168 106.815 481.429 107.078 493.743C107.078 493.743 97.2788 467.245 90.751 466.47C84.2233 465.696 84.2375 474.271 89.8165 481.691C95.3955 489.111 106.2 502.431 107.941 509.274C107.941 509.274 97.2788 489.379 87.6642 495.475C78.0495 501.572 96.0327 513.596 104.033 518.003C112.034 522.41 117.598 549.571 117.598 549.571L121.776 548.458Z" fill="#003B1E"/>
<path opacity="0.2" d="M121.776 548.458C121.776 548.458 113.577 532.506 122.951 516.792C132.325 501.079 135.029 497.362 129.054 494.138C123.078 490.913 120.36 506.725 120.36 506.725C120.36 506.725 115.333 495.855 119.482 484.479C123.631 473.102 126.25 454.573 120.572 452.587C114.894 450.602 119.482 475.707 114.568 484.253C112.074 478.296 110.453 472.013 109.754 465.597C109.074 456.459 110.136 441.873 105.647 438.127C101.159 434.382 98.2983 436.973 102.702 457.135C105.35 469.168 106.815 481.429 107.078 493.743C107.078 493.743 97.2788 467.245 90.751 466.47C84.2233 465.696 84.2375 474.271 89.8165 481.691C95.3955 489.111 106.2 502.431 107.941 509.274C107.941 509.274 97.2788 489.379 87.6642 495.475C78.0495 501.572 96.0327 513.596 104.033 518.003C112.034 522.41 117.598 549.571 117.598 549.571L121.776 548.458Z" fill="black"/>
<path d="M115.247 555.005C115.247 555.005 123.191 538.94 113.661 523.354C104.132 507.767 101.314 504.092 107.247 500.826C113.18 497.559 116.111 513.244 116.111 513.244C116.111 513.244 120.996 502.318 116.678 490.998C112.359 479.677 109.598 461.19 115.162 459.121C120.727 457.051 116.578 482.212 121.605 490.702C124.019 484.714 125.554 478.412 126.165 471.99C126.717 462.838 125.457 448.265 129.889 444.463C134.321 440.662 137.224 443.21 133.103 463.429C130.619 475.478 129.32 487.738 129.223 500.037C129.223 500.037 138.583 473.468 145.097 472.609C151.61 471.75 151.724 480.311 146.244 487.816C140.764 495.32 130.158 508.767 128.487 515.638C128.487 515.638 138.895 495.602 148.566 501.558C158.237 507.514 140.452 519.777 132.508 524.241C124.565 528.704 119.368 555.991 119.368 555.991L115.247 555.005Z" fill="#003B1E"/>
<path d="M152.064 543.657H86.1348L91.4731 585.728H146.725L152.064 543.657Z" fill="#003B1E"/>
<g opacity="0.6">
<path d="M152.064 543.657H86.1348L91.4731 585.728H146.725L152.064 543.657Z" fill="white"/>
</g>
<path d="M304.441 231.56L305.149 220.943C305.149 220.943 302.6 217.832 302.784 216.015C302.968 214.199 307.372 204.132 308.844 203.794C310.317 203.456 317.624 207.891 317.524 210.229C317.425 212.566 312.37 220.704 311.591 221.295L311.521 232.644L304.441 231.56Z" fill="#E4897B"/>
<path d="M208.152 198.429C201.695 200.232 198.353 211.932 201.426 233.756C204.499 255.58 196.003 284.557 196.003 284.557C196.003 284.557 231.275 295.469 253.464 281.501C275.653 267.534 244.019 239.853 244.019 239.853C244.019 239.853 256.891 248.54 261.252 260.269C262.113 258.233 262.359 255.992 261.96 253.82C259.123 248.083 255.006 243.065 249.924 239.149C241.187 232.221 248.508 215.917 242.377 207.117C236.246 198.317 233.045 191.488 208.152 198.429Z" fill="#263238"/>
<path d="M243.906 220.253C243.906 220.253 243.198 232.925 247.687 235.981C252.175 239.036 261.493 241.5 264.551 247.357" stroke="#263238" stroke-width="0.488465" stroke-linecap="round" stroke-linejoin="round"/>
<path d="M250.406 250.821C263.377 251.779 288.865 272.152 295.945 273.56C303.025 274.968 303.974 225.28 303.974 225.28H314.353C314.353 225.28 312.47 279.812 304.908 285.824C297.347 291.836 249.132 273.603 249.132 273.603L250.406 250.821Z" fill="#003B1E"/>
<path opacity="0.3" d="M314.353 225.28C314.353 225.28 312.47 279.812 304.908 285.824C299.98 289.766 277.707 283.318 262.839 278.404C257.33 276.573 252.842 274.94 250.633 274.18L249.132 273.617L250.42 250.835C263.377 251.779 288.865 272.166 295.945 273.574C303.025 274.982 303.974 225.28 303.974 225.28H314.353Z" fill="black"/>
<path d="M303.024 223.872H314.352L315.599 228.096H303.024V223.872Z" fill="#A10702"/>
<path opacity="0.2" d="M262.839 278.404C257.33 276.573 252.842 274.954 250.633 274.18V264.099C250.633 264.099 259.539 270.195 262.839 278.404Z" fill="black"/>
<path d="M236.642 516.314C227.608 527.578 219.48 537.856 212.4 545.318C205.32 552.879 201.667 557.568 201.667 557.568L194.672 553.569C194.672 553.569 201.143 543.389 209.922 529.352C217.385 517.44 226.518 502.741 234.815 489.125C245.549 471.525 254.88 455.742 257.344 450.095C259.1 446.083 254.342 430.665 249.089 416.134C243.75 401.336 237.888 387.439 237.888 387.439L256.99 355.267C256.99 355.267 264.764 376.682 271.674 399.281C276.219 414.065 280.354 429.37 281.756 439.535C283.71 453.742 259.128 488.252 236.642 516.314Z" fill="#E4897B"/>
<path opacity="0.2" d="M236.699 516.314C227.665 527.578 218.985 537.856 212.528 545.318C211.607 540.728 210.673 535.294 209.937 529.366C217.399 517.454 226.532 502.755 234.83 489.139C234.654 498.234 235.279 507.327 236.699 516.314Z" fill="black"/>
<path opacity="0.2" d="M271.674 399.295L249.018 416.191C243.68 401.393 237.817 387.496 237.817 387.496L256.919 355.323C256.919 355.323 264.792 376.696 271.674 399.295Z" fill="black"/>
<path d="M232.224 574.013L224.082 575.069C224.082 575.069 212.4 517.891 212.754 470.709C208.416 455.095 205.031 439.236 202.616 423.217C199.784 403.899 198.368 382.385 202.134 366.333L230.454 379.005L231.035 421.245L231.516 456.445L232.224 574.013Z" fill="#E4897B"/>
<path opacity="0.2" d="M231.035 421.245L202.616 423.217C199.784 403.899 198.368 382.385 202.134 366.333L230.454 379.005L231.035 421.245Z" fill="black"/>
<path d="M195.139 549.12C195.975 548.515 203.026 558.976 203.026 558.976C203.026 558.976 201.455 569.916 204.641 576.984C207.827 584.053 201.639 583.447 196.499 576.759L183.755 560.201C180.13 555.526 186.488 555.4 195.139 549.12Z" fill="#263238"/>
<path d="M205.42 566.974C203.806 566.593 202.772 562.06 202.588 561.158V561.018V560.919V560.835L202.701 560.764C202.857 560.764 205.831 559.779 207.445 560.764C207.691 560.904 207.904 561.094 208.071 561.322C208.237 561.55 208.352 561.812 208.408 562.088C208.535 562.707 208.408 563.144 208.054 563.383C207.7 563.622 206.425 563.454 205.363 562.975C206.075 563.63 206.589 564.468 206.85 565.397C206.876 565.582 206.864 565.772 206.816 565.953C206.767 566.134 206.682 566.304 206.567 566.453C206.458 566.627 206.309 566.774 206.131 566.879C205.954 566.984 205.754 567.046 205.547 567.058L205.42 566.974ZM205.561 566.326C205.632 566.326 205.831 566.326 206.142 565.988C206.203 565.912 206.248 565.823 206.272 565.728C206.297 565.634 206.3 565.535 206.284 565.439C206.142 564.397 204.57 562.876 203.452 561.947C203.905 563.89 204.811 566.143 205.561 566.326ZM203.721 561.215C205.434 562.271 207.317 563.102 207.785 562.778C207.926 562.679 207.884 562.355 207.785 562.172C207.752 561.986 207.678 561.81 207.568 561.656C207.458 561.503 207.314 561.376 207.147 561.285C206.674 561.049 206.147 560.937 205.618 560.961C204.978 560.975 204.342 561.06 203.721 561.215Z" fill="#003B1E"/>
<path d="M221.193 569.958C221.193 568.931 233.937 569.705 233.937 569.705C233.937 569.705 241.725 577.632 249.301 579.406C256.877 581.18 252.643 585.728 244.175 585.728H223.204C217.186 585.728 220.896 580.589 221.193 569.958Z" fill="#263238"/>
<path d="M235.312 571.31L235.198 571.24V571.155C235.198 571.155 235.198 571.085 235.198 571.057C235.192 571.015 235.192 570.972 235.198 570.93C235.198 570.775 236.317 567.861 238.03 567.157C238.288 567.038 238.568 566.977 238.852 566.977C239.135 566.977 239.415 567.038 239.673 567.157C240.253 567.424 240.537 567.776 240.508 568.213C240.508 568.874 239.574 569.536 238.54 570.085C239.495 569.93 240.474 570.037 241.372 570.395C241.535 570.487 241.677 570.611 241.791 570.758C241.906 570.906 241.989 571.074 242.038 571.254C242.132 571.48 242.154 571.73 242.1 571.969C242.047 572.208 241.922 572.426 241.74 572.591C241.412 572.814 241.019 572.923 240.622 572.901C238.771 572.689 236.973 572.15 235.312 571.31ZM236.473 571.099C238.342 571.887 240.65 572.577 241.259 572.099C241.259 572.099 241.471 571.916 241.344 571.423C241.315 571.329 241.267 571.242 241.204 571.167C241.141 571.092 241.063 571.031 240.976 570.986C240.505 570.774 239.99 570.678 239.475 570.705C238.463 570.732 237.457 570.865 236.473 571.099ZM238.229 567.734C237.221 568.377 236.455 569.332 236.048 570.451C237.931 569.733 239.744 568.762 239.772 568.184C239.772 568.015 239.489 567.846 239.319 567.776C239.148 567.698 238.962 567.657 238.774 567.657C238.586 567.657 238.4 567.698 238.229 567.776V567.734Z" fill="#003B1E"/>
<path d="M243.552 408.221L274.18 392.269C264.551 363.151 255.857 346.65 255.857 346.65C225.753 351.775 228.5 375.443 228.5 375.443C228.5 375.443 236.231 391.227 243.552 408.221Z" fill="#003B1E"/>
<path opacity="0.6" d="M241.641 403.73C242.292 405.208 242.958 406.715 243.609 408.221L274.237 392.269C264.608 363.166 255.914 346.65 255.914 346.65C237.336 349.832 231.276 360.054 229.35 367.404C228.638 370.021 228.37 372.738 228.557 375.443C228.557 375.443 234.915 388.608 241.641 403.73Z" fill="white"/>
<path opacity="0.2" d="M241.641 403.73C234.915 388.552 228.557 375.443 228.557 375.443C228.37 372.738 228.638 370.021 229.35 367.404C230.311 366.785 231.376 366.342 232.493 366.094C232.493 366.094 240.72 378.865 241.641 403.73Z" fill="black"/>
<path d="M234.122 414.797L233.074 366.08L257.344 359.04C257.344 359.04 255.433 336.695 252.601 325.67C252.601 325.67 213.179 315.913 207.161 329.204C207.161 329.204 207.161 329.416 207.076 329.486L206.991 329.613C206.991 329.613 195.663 349.423 199.034 414.783L234.122 414.797Z" fill="#003B1E"/>
<path opacity="0.6" d="M234.122 414.797L233.074 366.08L257.344 359.04C257.344 359.04 255.433 336.695 252.601 325.67C252.601 325.67 213.179 315.913 207.161 329.204C207.161 329.204 207.161 329.416 207.076 329.486L206.991 329.613C206.991 329.613 195.663 349.423 199.034 414.783L234.122 414.797Z" fill="white"/>
<path d="M206.736 322.474V329.12L252.048 325.642V317.786L206.736 322.474Z" fill="#263238"/>
<path d="M222.063 320.302L219.798 320.415L220.376 331.904L222.641 331.792L222.063 320.302Z" fill="#003B1E"/>
<path d="M241.88 319.388L231.895 320.277L232.573 327.808L242.558 326.919L241.88 319.388Z" fill="white"/>
<path d="M249.965 316.652L247.702 316.766L248.291 328.241L250.553 328.126L249.965 316.652Z" fill="#003B1E"/>
<path opacity="0.6" d="M222.063 320.302L219.798 320.415L220.376 331.904L222.641 331.792L222.063 320.302Z" fill="white"/>
<path opacity="0.6" d="M249.965 316.652L247.702 316.766L248.291 328.241L250.553 328.126L249.965 316.652Z" fill="white"/>
<path d="M252.6 318.574L206.949 322.502C205.858 305.606 204.782 294.737 194.728 264.662C193.86 262.024 192.916 259.232 191.896 256.284C198.094 254.319 204.426 252.799 210.843 251.736C217.618 250.54 224.469 249.82 231.346 249.582C240.225 249.582 250.42 250.511 250.42 250.511C250.42 250.511 251.836 250.863 252.799 260.227C253.62 269.013 254.441 286.598 252.6 318.574Z" fill="#003B1E"/>
<path opacity="0.3" d="M252.6 318.574L206.949 322.502C206.48 310.917 204.771 299.415 201.851 288.189C200.676 283.656 199.203 278.559 197.334 272.701C196.541 270.195 195.677 267.548 194.728 264.718C193.78 261.888 192.916 259.283 191.896 256.34C198.094 254.375 204.426 252.855 210.843 251.793C217.618 250.596 224.469 249.876 231.346 249.638C240.225 249.638 250.434 250.568 250.434 250.568C250.434 250.568 251.85 250.92 252.799 260.269C253.62 269.013 254.441 286.598 252.6 318.574Z" fill="black"/>
<path d="M196.116 412.797L236.118 412.445L235.41 418.429L197.886 418.077L196.116 412.797Z" fill="#003B1E"/>
<path d="M241.074 407.869L274.35 389.917L276.12 395.197L243.906 411.037L241.074 407.869Z" fill="#003B1E"/>
<path d="M222.143 250.202C222.143 250.202 209.569 249.709 210.277 256.101C210.985 262.493 241.641 281.037 241.641 281.037C241.641 281.037 240.282 247.343 222.143 250.202Z" stroke="#CC952E" stroke-miterlimit="10"/>
<path d="M227.565 259.621C216.237 258.213 212.924 253.398 212.924 253.398C217.526 249.089 216.69 242.725 215.515 238.755C215.15 237.496 214.676 236.271 214.099 235.094L227.65 237.614C227.338 239.476 227.163 241.359 227.126 243.246C227.076 244.664 227.204 246.084 227.509 247.47C228.429 251.497 230.737 251.553 230.737 251.553C233.144 255.96 227.565 259.621 227.565 259.621Z" fill="#E4897B"/>
<path opacity="0.2" d="M227.155 243.288C227.105 244.707 227.233 246.126 227.537 247.512C222.157 246.808 218.079 242.528 215.516 238.811C215.15 237.552 214.677 236.328 214.1 235.15L227.651 237.67C227.349 239.529 227.183 241.406 227.155 243.288Z" fill="black"/>
<path d="M224.918 200.316C236.699 200.739 240.267 207.159 240.678 219.268C241.188 234.39 237.421 244.992 222.808 241.219C202.97 236.108 205.32 199.584 224.918 200.316Z" fill="#E4897B"/>
<path d="M233.074 218.324C233.956 220.109 235.049 221.783 236.331 223.309C235.968 223.78 235.481 224.143 234.924 224.356C234.366 224.57 233.761 224.627 233.173 224.52L233.074 218.324Z" fill="#DE5753"/>
<path d="M225.909 217.1C225.909 218.071 225.357 218.846 224.706 218.831C224.054 218.817 223.559 218.029 223.559 217.071C223.559 216.114 224.111 215.34 224.762 215.34C225.414 215.34 225.923 216.142 225.909 217.1Z" fill="#263238"/>
<path d="M224.493 215.424L226.603 214.636C226.603 214.636 225.527 216.339 224.493 215.424Z" fill="#263238"/>
<path d="M237.888 217.071C237.888 218.029 237.35 218.803 236.699 218.789C236.048 218.775 235.538 218.001 235.552 217.029C235.566 216.058 236.104 215.297 236.741 215.311C237.379 215.325 237.959 216.1 237.888 217.071Z" fill="#263238"/>
<path d="M236.473 215.424L238.597 214.621C238.597 214.621 237.577 216.311 236.473 215.424Z" fill="#263238"/>
<path d="M226.093 209.004C225.164 208.857 224.214 208.924 223.315 209.2C222.417 209.476 221.594 209.953 220.91 210.595" stroke="#263238" stroke-width="0.707962" stroke-linecap="round" stroke-linejoin="round"/>
<path d="M234.674 208.835C235.486 208.661 236.326 208.672 237.133 208.867C237.94 209.062 238.692 209.436 239.332 209.961" stroke="#263238" stroke-width="0.707962" stroke-linecap="round" stroke-linejoin="round"/>
<path d="M231.276 229.068C230.678 230.373 230.172 231.719 229.761 233.094L228.996 232.996C225.584 232.517 224.154 231.18 223.601 229.842C223.352 229.177 223.264 228.463 223.346 227.758C223.376 227.357 223.467 226.963 223.615 226.589C225.591 227.813 227.807 228.601 230.115 228.899C230.809 229.025 231.276 229.068 231.276 229.068Z" fill="#263238"/>
<path d="M230.114 228.899L229.633 230.067C226.418 229.617 224.224 228.87 223.346 227.758C223.375 227.357 223.466 226.963 223.615 226.589C225.59 227.813 227.806 228.601 230.114 228.899Z" fill="white"/>
<path d="M228.996 232.996C225.583 232.517 224.153 231.18 223.601 229.842C224.899 230.04 226.151 230.47 227.296 231.109C228.053 231.539 228.649 232.201 228.996 232.996Z" fill="#DE5753"/>
<path d="M211.31 219.648C211.31 219.648 217.173 210.228 216.62 202.752C216.62 202.752 240.324 194.121 240.593 217.733C240.593 217.733 243.652 196.895 223.417 195.684C203.183 194.473 202.177 223.942 212.302 233.108C212.302 233.052 207.671 225.477 211.31 219.648Z" fill="#263238"/>
<path d="M213.137 222.126C213.07 220.766 212.466 219.488 211.455 218.57C210.444 217.652 209.109 217.169 207.742 217.226C204.074 217.48 202.078 224.872 211.083 226.998C212.4 227.308 213.151 226.068 213.137 222.126Z" fill="#E4897B"/>
<path d="M218.305 192.572C224.677 190.812 241.669 190.573 245.677 208.06L243.312 209.229C239.322 207.233 235.007 205.96 230.568 205.469C229.625 203.803 228.52 202.233 227.269 200.781C227.399 202.266 227.399 203.759 227.269 205.244C227.269 205.244 216.181 206.849 211.225 211.341C203.437 218.381 202.956 222.844 202.956 222.844C202.956 222.844 197.561 198.289 218.305 192.572Z" fill="#263238"/>
<path d="M217.356 193.853C217.356 193.853 240.126 185.997 247.333 207.469" stroke="#263238" stroke-width="0.488465" stroke-linecap="round" stroke-linejoin="round"/>
<path d="M243.864 287.021C245.936 287.021 247.616 285.35 247.616 283.29C247.616 281.229 245.936 279.558 243.864 279.558C241.791 279.558 240.111 281.229 240.111 283.29C240.111 285.35 241.791 287.021 243.864 287.021Z" fill="white"/>
<path opacity="0.2" d="M201.851 288.189C200.676 283.656 199.203 278.559 197.334 272.701L199.26 268.703C199.26 268.703 204.258 280.291 201.851 288.189Z" fill="black"/>
<path d="M132.75 232.179L128.828 222.323C128.828 222.323 130.244 218.592 129.564 216.917C128.885 215.241 121.578 206.99 120.063 207.061C118.548 207.131 112.983 213.622 113.762 215.818C114.541 218.015 121.876 224.266 122.796 224.562L126.336 235.361L132.75 232.179Z" fill="#E4897B"/>
<path d="M191.882 256.256C185.85 257.889 162.146 280.769 158.238 280.769C154.33 280.769 132.396 228.321 132.396 228.321L124.962 232.996C124.962 232.996 140.184 291.709 149.388 296.637C158.592 301.565 199.401 279.404 199.401 279.404C199.401 279.404 200.01 268.027 198.24 262.789C197.761 261.285 196.937 259.912 195.834 258.779C194.731 257.645 193.378 256.782 191.882 256.256Z" fill="#003B1E"/>
<path opacity="0.3" d="M191.882 256.256C185.85 257.889 162.146 280.769 158.238 280.769C154.33 280.769 132.396 228.321 132.396 228.321L124.962 232.996C124.962 232.996 140.184 291.709 149.388 296.637C158.592 301.565 199.401 279.404 199.401 279.404C199.401 279.404 200.01 268.027 198.24 262.789C197.761 261.285 196.937 259.912 195.834 258.779C194.731 257.645 193.378 256.782 191.882 256.256Z" fill="black"/>
<path d="M123.221 232.644L132.75 226.589L135.214 230.067L124.962 236.445L123.221 232.644Z" fill="#A10702"/>
<path d="M456.419 218.874C456.419 218.874 419.603 253.412 402.611 259.185C385.619 264.957 341.935 286.345 341.935 286.345L335.238 281.093C335.238 280.797 330.353 284.557 330.296 287.162C330.296 289.048 335.096 304.86 336.102 304.846C340.774 304.846 346.014 294.202 346.014 294.202C346.014 294.202 401.946 279.713 411.971 275.348C421.996 270.984 463.315 238.938 463.315 238.938L456.419 218.874Z" fill="#B97964"/>
<path d="M464.575 210.594C453.827 213.242 440.021 231.968 440.021 231.968L449.933 249.469L465.977 243.584L464.575 210.594Z" fill="#003B1E"/>
<path opacity="0.6" d="M465.977 243.584L451.817 248.836L449.933 249.54L440.021 232.052C440.021 232.052 453.827 213.312 464.575 210.651L465.226 225.928L465.977 243.584Z" fill="white"/>
<path d="M440.022 228.744L451.704 249.469L447.697 252.384L438.11 231.757L440.022 228.744Z" fill="#003B1E"/>
<path opacity="0.2" d="M465.977 243.584L451.817 248.836C453.12 237.459 462.494 228.378 465.227 225.928L465.977 243.584Z" fill="black"/>
<path d="M466.515 574.915L454.664 576.154L452.44 550.739L464.292 549.5L466.515 574.915Z" fill="#B97964"/>
<path d="M525.633 574.056H514.149L513.2 547.613H524.698L525.633 574.056Z" fill="#B97964"/>
<path d="M512.592 572.732H526.54C526.768 572.733 526.99 572.812 527.167 572.956C527.345 573.099 527.468 573.298 527.517 573.521L529.782 583.686C529.828 583.902 529.83 584.124 529.79 584.34C529.749 584.557 529.666 584.763 529.545 584.947C529.424 585.132 529.267 585.291 529.084 585.415C528.902 585.539 528.696 585.626 528.479 585.672C528.352 585.685 528.224 585.685 528.097 585.672C523.594 585.601 520.309 585.32 514.631 585.32C511.148 585.32 500.613 585.686 495.798 585.686C490.984 585.686 490.347 580.955 492.315 580.518C501.165 578.603 507.891 575.942 510.723 573.408C511.243 572.965 511.907 572.725 512.592 572.732Z" fill="#263238"/>
<path d="M508.769 574.732C507.987 574.797 507.207 574.593 506.56 574.154C506.355 573.985 506.196 573.767 506.097 573.522C505.998 573.276 505.962 573.009 505.993 572.746C505.987 572.588 506.028 572.431 506.111 572.296C506.194 572.16 506.316 572.053 506.461 571.986C507.735 571.338 511.445 573.605 511.841 573.859C511.889 573.884 511.928 573.923 511.954 573.97C511.979 574.018 511.989 574.072 511.983 574.126C511.975 574.181 511.951 574.232 511.913 574.272C511.875 574.313 511.825 574.34 511.771 574.351C510.787 574.59 509.78 574.717 508.769 574.732ZM507.055 572.366C506.933 572.355 506.81 572.38 506.701 572.436C506.701 572.436 506.545 572.535 506.531 572.76C506.507 572.94 506.528 573.123 506.593 573.292C506.657 573.462 506.762 573.613 506.899 573.732C508.191 574.303 509.651 574.373 510.992 573.929C509.79 573.166 508.455 572.636 507.055 572.366Z" fill="#003B1E"/>
<path d="M511.7 574.323H511.573C510.383 573.689 508.089 571.183 508.33 569.972C508.37 569.77 508.479 569.587 508.639 569.456C508.799 569.325 509 569.254 509.208 569.254C509.413 569.226 509.623 569.243 509.821 569.303C510.019 569.364 510.201 569.468 510.355 569.606C511.686 570.676 511.969 573.971 511.983 574.126C511.993 574.162 511.991 574.201 511.978 574.236C511.965 574.271 511.942 574.301 511.911 574.323C511.88 574.344 511.843 574.356 511.806 574.356C511.768 574.356 511.731 574.345 511.7 574.323ZM509.392 569.691H509.265C508.911 569.691 508.882 569.902 508.868 569.972C508.727 570.705 510.185 572.619 511.36 573.506C511.27 572.198 510.776 570.949 509.944 569.93C509.794 569.789 509.598 569.704 509.392 569.691Z" fill="#003B1E"/>
<path d="M453.417 572.366H467.365C467.593 572.367 467.815 572.446 467.993 572.59C468.17 572.733 468.293 572.932 468.342 573.155L470.607 583.32C470.696 583.759 470.607 584.214 470.361 584.588C470.114 584.962 469.73 585.225 469.29 585.32H468.922C464.405 585.249 461.12 584.968 455.456 584.968C451.973 584.968 441.438 585.334 436.623 585.334C431.809 585.334 431.172 580.603 433.14 580.166C441.99 578.251 448.645 575.59 451.548 573.126C452.056 572.653 452.721 572.383 453.417 572.366Z" fill="#263238"/>
<path d="M449.609 574.365C448.832 574.434 448.055 574.229 447.414 573.788C447.206 573.621 447.045 573.404 446.945 573.158C446.846 572.911 446.812 572.643 446.847 572.38C446.841 572.222 446.882 572.065 446.965 571.93C447.048 571.794 447.17 571.686 447.315 571.62C448.575 570.972 452.285 573.239 452.695 573.492C452.744 573.516 452.783 573.556 452.806 573.604C452.829 573.653 452.835 573.708 452.823 573.76C452.817 573.815 452.795 573.867 452.76 573.909C452.725 573.952 452.678 573.983 452.625 573.999C451.635 574.226 450.624 574.349 449.609 574.365ZM447.909 572C447.787 571.994 447.666 572.019 447.555 572.07C447.485 572.07 447.4 572.183 447.385 572.394C447.358 572.573 447.377 572.755 447.439 572.925C447.5 573.094 447.604 573.246 447.739 573.366C449.029 573.941 450.489 574.017 451.832 573.577C450.64 572.802 449.308 572.266 447.909 572Z" fill="#003B1E"/>
<path d="M452.554 573.971H452.426C451.237 573.324 448.943 570.817 449.184 569.606C449.218 569.405 449.324 569.223 449.483 569.093C449.642 568.964 449.842 568.896 450.047 568.902C450.254 568.87 450.465 568.883 450.666 568.942C450.867 569 451.052 569.102 451.208 569.24C452.539 570.324 452.809 573.605 452.823 573.76C452.827 573.81 452.818 573.86 452.795 573.905C452.773 573.95 452.738 573.987 452.695 574.013C452.645 574.014 452.595 574 452.554 573.971ZM450.288 569.339H450.161C449.807 569.339 449.778 569.536 449.764 569.606C449.608 570.353 451.081 572.253 452.256 573.14C452.166 571.832 451.672 570.583 450.84 569.564C450.688 569.427 450.493 569.348 450.288 569.339Z" fill="#003B1E"/>
<path opacity="0.2" d="M464.292 549.5L452.44 550.739L453.602 563.848L465.453 562.609L464.292 549.5Z" fill="black"/>
<path opacity="0.2" d="M524.698 547.627H513.2L513.696 561.257H525.194L524.698 547.627Z" fill="black"/>
<path d="M519.955 315.645H459.067C453.275 347.1 435.136 458.431 448.149 557.624L468.78 555.09C468.78 555.09 466.869 423.4 485.078 374.711C487.174 400.773 489.666 428.497 491.819 443.238C497.129 479.551 508.471 558.891 508.471 558.891H529.47C529.47 558.891 525.222 482.944 523.197 447.265C520.974 408.531 520.04 323.601 519.955 315.645Z" fill="#003B1E"/>
<path opacity="0.2" d="M485.036 374.627C482.033 383.161 479.755 391.931 478.225 400.843C476.526 377.654 483.337 353.056 483.337 353.056L485.036 374.627Z" fill="black"/>
<path d="M445.742 562.411L471.273 558.624L470.494 551.598L443.93 555.062L445.742 562.411Z" fill="#003B1E"/>
<path opacity="0.6" d="M445.742 562.411L471.273 558.624L470.494 551.598L443.93 555.062L445.742 562.411Z" fill="white"/>
<path d="M505.908 559.06H530.674V551.697L504.974 551.218L505.908 559.06Z" fill="#003B1E"/>
<path opacity="0.6" d="M505.908 559.06H530.674V551.697L504.974 551.218L505.908 559.06Z" fill="white"/>
<path d="M464.576 210.595C464.576 210.595 503.346 208.708 532.218 215.959C532.218 215.959 522.377 303.706 522.858 340.314L451.704 337.92C451.704 337.92 454.536 248.061 464.576 210.595Z" fill="#003B1E"/>
<path opacity="0.6" d="M532.218 215.973C532.218 215.973 531.071 226.195 529.57 241.148C528.069 256.101 526.214 276.01 524.855 294.948C523.58 312.252 522.702 328.81 522.858 340.314L451.704 337.92C451.704 337.92 454.536 248.132 464.576 210.651C464.576 210.58 503.346 208.708 532.218 215.973Z" fill="white"/>
<path d="M333.425 265.407L333.736 265.393L333.708 265.351H333.75L333.736 265.253L333.425 265.407Z" fill="#263238"/>
<path d="M453.686 249.146L452.582 249.216H372.875L334.402 264.704H333.751L340.788 337.92H416.573L459.081 320.982L453.686 249.146Z" fill="#CC952E"/>
<path opacity="0.2" d="M342.983 270.449L346.07 273.293L350.176 272.378L348.406 276.165L350.558 279.77L346.381 279.277L343.606 282.417L342.785 278.319L338.919 276.658L342.586 274.616L342.983 270.449Z" fill="white"/>
<path opacity="0.2" d="M386.143 276.475L385.859 280.657L389.144 283.247L385.066 284.275L383.608 288.189L381.371 284.641L377.165 284.472L379.87 281.262L378.737 277.235L382.631 278.798L386.143 276.475Z" fill="white"/>
<path opacity="0.2" d="M384.727 321.531L384.443 325.713L387.728 328.303L383.65 329.331L382.192 333.245L379.955 329.697L375.749 329.528L378.454 326.318L377.321 322.291L381.215 323.854L384.727 321.531Z" fill="white"/>
<path opacity="0.2" d="M366.319 310.267L366.036 314.449L369.321 317.039L365.243 318.067L363.785 321.981L361.547 318.433L357.342 318.264L360.046 315.054L358.914 311.027L362.808 312.59L366.319 310.267Z" fill="white"/>
<path opacity="0.2" d="M387.261 308.887L387.091 311.323L389.031 312.843L386.638 313.449L385.774 315.744L384.472 313.674L382.008 313.562L383.594 311.689L382.928 309.323L385.208 310.239L387.261 308.887Z" fill="white"/>
<path opacity="0.2" d="M351.862 325.783L351.692 328.219L353.632 329.739L351.239 330.345L350.375 332.64L349.072 330.57L346.608 330.458L348.194 328.585L347.529 326.219L349.809 327.135L351.862 325.783Z" fill="white"/>
<path opacity="0.2" d="M349.03 301.847L348.86 304.283L350.8 305.803L348.407 306.409L347.543 308.704L346.24 306.634L343.776 306.522L345.362 304.649L344.697 302.283L346.977 303.199L349.03 301.847Z" fill="white"/>
<path opacity="0.2" d="M401.421 266.647L401.251 269.083L403.191 270.603L400.798 271.209L399.935 273.504L398.632 271.434L396.168 271.322L397.754 269.449L397.088 267.083L399.368 267.999L401.421 266.647Z" fill="white"/>
<path opacity="0.2" d="M356.888 283.29L359.352 288.26L364.86 289.048L360.867 292.906L361.816 298.369L356.888 295.793L351.96 298.369L352.909 292.906L348.916 289.048L354.424 288.26L356.888 283.29Z" fill="white"/>
<path opacity="0.2" d="M393.237 293.385L398.264 295.736L403.078 292.948L402.37 298.44L406.519 302.129L401.054 303.156L398.816 308.225L396.14 303.368L390.604 302.819L394.413 298.792L393.237 293.385Z" fill="white"/>
<path opacity="0.2" d="M403.617 317.082L406.08 322.052L411.589 322.84L407.596 326.698L408.544 332.161L403.617 329.585L398.689 332.161L399.638 326.698L395.645 322.84L401.153 322.052L403.617 317.082Z" fill="white"/>
<path opacity="0.2" d="M417.394 267.942L419.15 270.378L421.203 268.942L420.523 272.955L421.84 276.278L419.674 276.32L418.428 279.798L417.762 275.813L415.681 274.644L417.451 272.152L417.394 267.942Z" fill="white"/>
<path opacity="0.2" d="M439.936 268.491L440.036 272.687L441.891 274.87L439.852 276.404L439.328 280.502L437.968 277.249L435.802 277.601L436.991 274.067L436.17 270.181L438.266 271.251L439.936 268.491Z" fill="white"/>
<path opacity="0.2" d="M441.891 313.646L441.99 317.842L443.845 320.024L441.806 321.559L441.296 325.656L439.937 322.404L437.756 322.77L438.959 319.222L438.138 315.336L440.234 316.406L441.891 313.646Z" fill="white"/>
<path opacity="0.2" d="M431.767 304.733L431.866 308.929L433.721 311.112L431.682 312.646L431.158 316.744L429.798 313.491L427.632 313.843L428.821 310.309L428 306.423L430.096 307.479L431.767 304.733Z" fill="white"/>
<path opacity="0.2" d="M442.443 300.692L442.499 303.156L443.59 304.424L442.4 305.325L442.089 307.732L441.296 305.832L440.021 306.029L440.729 303.959L440.234 301.692L441.466 302.312L442.443 300.692Z" fill="white"/>
<path opacity="0.2" d="M425.267 322.038L425.324 324.502L426.4 325.783L425.21 326.684L424.913 329.078L424.106 327.177L422.846 327.388L423.54 325.304L423.058 323.037L424.29 323.657L425.267 322.038Z" fill="white"/>
<path opacity="0.2" d="M422.378 298.51L422.435 300.974L423.525 302.241L422.336 303.142L422.024 305.536L421.231 303.635L419.957 303.846L420.651 301.777L420.169 299.496L421.401 300.129L422.378 298.51Z" fill="white"/>
<path opacity="0.2" d="M447.201 256.735L447.257 259.199L448.348 260.466L447.158 261.367L446.847 263.775L446.054 261.874L444.779 262.071L445.473 260.001L444.992 257.734L446.224 258.354L447.201 256.735Z" fill="white"/>
<path opacity="0.2" d="M425.309 278.995L426.867 283.642L429.741 283.74L427.929 288.091L428.736 293.413L426.06 291.47L423.681 294.666L423.836 289.105L421.557 285.754L424.346 284.261L425.309 278.995Z" fill="white"/>
<path opacity="0.2" d="M444.596 284.458L447.314 286.176L449.622 282.797L449.58 288.358L451.945 291.512L449.198 293.23L448.348 298.566L446.677 294.075L443.803 294.216L445.516 289.71L444.596 284.458Z" fill="white"/>
<path opacity="0.2" d="M451.335 306.817L452.893 311.45L455.782 311.548L453.955 315.913L454.762 321.235L452.086 319.292L449.707 322.474L449.863 316.913L447.583 313.576L450.373 312.083L451.335 306.817Z" fill="white"/>
<path opacity="0.2" d="M409.493 264.915L453.687 249.469L459.081 321.559L416.573 338.765L409.493 264.915Z" fill="black"/>
<path opacity="0.2" d="M333.425 264.986L372.875 249.216H453.119L409.492 264.436L333.425 264.986Z" fill="white"/>
<path d="M444.383 327.684L439.314 253.44H361.08L353.688 257.256L425.154 259.199L434.287 331.359L444.383 327.684Z" fill="#093824"/>
<path d="M411.815 249.216L375.127 264.352L379.488 337.92H368.16L360.372 264.577L401.436 249.216H411.815Z" fill="#003B1E"/>
<g opacity="0.2">
<path d="M444.383 327.684L439.314 253.44H361.08L353.688 257.256L425.154 259.199L434.287 331.359L444.383 327.684Z" fill="white"/>
<path d="M411.815 249.216L375.127 264.352L379.488 337.92H368.16L360.372 264.577L401.436 249.216H411.815Z" fill="white"/>
</g>
<path opacity="0.2" d="M439.313 254.088L425.153 259.368L434.287 331.598L444.383 328.008L439.313 254.088Z" fill="black"/>
<path opacity="0.1" d="M360.372 264.901L375.127 264.521L379.488 337.92H368.16L360.372 264.901Z" fill="black"/>
<path d="M388.38 254.975C388.38 254.975 367.14 239.008 357.908 243.007C350.615 246.161 351.677 255.608 370.128 258.016C363.203 258.635 355.005 259.734 350.105 261.592L364.025 263.226C372.378 260.961 380.902 259.375 389.513 258.481C389.868 260.042 389.868 261.664 389.513 263.226L399.042 262.409C399.042 262.409 396.21 259.748 393.945 257.791C404.862 256.706 428.24 253.229 430.591 243.007C433.664 229.631 399.977 238.543 388.38 254.975ZM357.908 245.696C360.145 242.176 387.049 256.143 387.049 256.143C374.418 257.903 355.656 249.216 357.908 245.696ZM390.801 255.552C390.801 255.552 419.617 235.023 426.584 239.599C433.55 244.175 399.51 256.383 390.815 255.552H390.801Z" fill="#003B1E"/>
<path opacity="0.1" d="M388.38 254.975C388.38 254.975 367.14 239.008 357.908 243.007C350.615 246.161 351.677 255.608 370.128 258.016C363.203 258.635 355.005 259.734 350.105 261.592L364.025 263.226C372.378 260.961 380.902 259.375 389.513 258.481C389.868 260.042 389.868 261.664 389.513 263.226L399.042 262.409C399.042 262.409 396.21 259.748 393.945 257.791C404.862 256.706 428.24 253.229 430.591 243.007C433.664 229.631 399.977 238.543 388.38 254.975ZM357.908 245.696C360.145 242.176 387.049 256.143 387.049 256.143C374.418 257.903 355.656 249.216 357.908 245.696ZM390.801 255.552C390.801 255.552 419.617 235.023 426.584 239.599C433.55 244.175 399.51 256.383 390.815 255.552H390.801Z" fill="white"/>
<path opacity="0.2" d="M529.583 241.148C528.083 256.186 526.228 276.01 524.868 294.948C493.32 258.692 515.891 232.052 515.891 232.052L529.583 241.148Z" fill="black"/>
<path d="M480.561 210.369C480.561 210.369 480.264 218.409 490.884 218.817C501.504 219.226 515.735 212.791 515.735 212.791C515.735 212.791 495.486 208.384 480.561 210.369Z" fill="#003B1E"/>
<path d="M510.184 212.073C504.591 217.128 490.884 215.255 490.884 215.255C490.884 215.255 482.388 212.932 484.13 210.271C489.171 209.44 491.606 207.103 492.626 204.118C493.172 202.259 493.346 200.312 493.136 198.387C493.057 197.319 492.915 196.257 492.711 195.205L509.703 182.73C507.423 190.953 504.704 206.103 510.184 212.073Z" fill="#B97964"/>
<path opacity="0.2" d="M505.724 190.657C505.059 200.767 496.705 203.555 492.612 204.118C493.159 202.259 493.332 200.312 493.122 198.387L505.724 190.657Z" fill="black"/>
<path d="M476.498 158.71C476.498 158.71 474.091 174.437 482.488 180.491C490.885 186.546 490.885 157.245 490.885 157.245L476.498 158.71Z" fill="#263238"/>
<path d="M506.928 192.995C505.161 195.594 502.584 197.544 499.593 198.544C496.601 199.544 493.363 199.539 490.375 198.528C486.5 197.307 483.239 194.664 481.256 191.136C480.967 190.647 480.712 190.139 480.491 189.615C476.357 180.013 475.04 163.187 485.263 156.893C487.515 155.491 490.089 154.685 492.742 154.551C495.395 154.417 498.039 154.96 500.421 156.128C502.804 157.296 504.846 159.051 506.354 161.226C507.863 163.4 508.786 165.922 509.038 168.552C510.298 179.788 511.573 186.335 506.928 192.995Z" fill="#B97964"/>
<path d="M492.57 174.592C492.782 175.479 492.372 176.31 491.763 176.422C491.154 176.535 490.559 175.859 490.347 175.014C490.134 174.17 490.545 173.283 491.14 173.184C491.734 173.085 492.4 173.733 492.57 174.592Z" fill="#263238"/>
<path d="M482.246 176.408C482.459 177.295 482.034 178.126 481.439 178.225C480.845 178.323 480.236 177.661 480.023 176.817C479.811 175.972 480.236 175.099 480.816 175C481.397 174.902 482.091 175.549 482.246 176.408Z" fill="#263238"/>
<path d="M485.603 176.296C484.987 179.237 483.967 182.079 482.572 184.744C483.277 185.081 484.048 185.263 484.83 185.275C485.613 185.287 486.388 185.13 487.103 184.814L485.603 176.296Z" fill="#A24E3F"/>
<path d="M495.189 170.79C495.094 170.818 494.993 170.821 494.896 170.799C494.799 170.776 494.71 170.73 494.637 170.664C494.15 170.188 493.559 169.833 492.91 169.625C492.261 169.417 491.572 169.363 490.898 169.467C490.76 169.497 490.615 169.473 490.493 169.399C490.372 169.326 490.284 169.209 490.247 169.073C490.23 169.004 490.227 168.933 490.238 168.863C490.249 168.794 490.273 168.727 490.31 168.667C490.347 168.607 490.395 168.554 490.452 168.513C490.51 168.471 490.575 168.441 490.643 168.425C491.488 168.265 492.358 168.309 493.181 168.554C494.004 168.799 494.756 169.238 495.373 169.833C495.423 169.883 495.464 169.942 495.491 170.007C495.518 170.072 495.532 170.142 495.532 170.213C495.532 170.284 495.518 170.354 495.491 170.419C495.464 170.484 495.423 170.543 495.373 170.593C495.323 170.669 495.261 170.735 495.189 170.79Z" fill="#263238"/>
<path d="M489.383 189.32C490.724 189.293 492.038 188.947 493.216 188.31C494.394 187.673 495.401 186.764 496.152 185.659C496.189 185.593 496.199 185.515 496.181 185.442C496.163 185.369 496.117 185.305 496.053 185.265C495.99 185.227 495.916 185.215 495.844 185.231C495.773 185.246 495.711 185.289 495.67 185.349C494.955 186.358 494.013 187.188 492.92 187.772C491.826 188.356 490.61 188.679 489.369 188.714C489.296 188.718 489.228 188.749 489.178 188.802C489.128 188.854 489.1 188.924 489.1 188.996C489.098 189.032 489.104 189.068 489.116 189.103C489.129 189.137 489.148 189.168 489.174 189.194C489.199 189.221 489.229 189.242 489.263 189.256C489.296 189.27 489.332 189.277 489.369 189.277L489.383 189.32Z" fill="#263238"/>
<path d="M477.192 173.62C477.091 173.655 476.982 173.655 476.881 173.62C476.812 173.602 476.747 173.571 476.69 173.528C476.633 173.485 476.586 173.431 476.55 173.369C476.514 173.308 476.492 173.24 476.483 173.169C476.474 173.099 476.479 173.027 476.498 172.959C476.721 172.125 477.142 171.357 477.726 170.72C478.31 170.083 479.04 169.595 479.854 169.298C479.991 169.259 480.138 169.275 480.263 169.344C480.388 169.413 480.48 169.528 480.52 169.664C480.56 169.798 480.545 169.943 480.479 170.067C480.413 170.191 480.3 170.284 480.166 170.326C479.531 170.581 478.966 170.98 478.513 171.491C478.061 172.002 477.735 172.61 477.56 173.268C477.528 173.35 477.479 173.424 477.415 173.485C477.352 173.545 477.276 173.592 477.192 173.62Z" fill="#263238"/>
<path d="M498.432 156.133V161.16C499.322 161.457 500.067 162.078 500.518 162.897C500.97 163.716 501.094 164.674 500.867 165.581C499.763 169.931 502.935 176.098 506.46 178.253C506.46 178.253 506.347 176.436 507.876 176.676C509.406 176.915 510.199 186.363 507.763 191.206C507.763 191.206 511.77 186.602 513.116 176.436C514.347 167.045 513.71 159.4 511.402 156.105L498.432 156.133Z" fill="#263238"/>
<path d="M515.622 174.198C513.036 170.391 509.588 167.242 505.554 165.003C498.771 161.131 488.349 158.442 473.651 163.018C473.651 163.018 478.961 137.463 502.085 146.122L502.651 146.347C525.066 155.147 515.622 174.198 515.622 174.198Z" fill="#003B1E"/>
<path opacity="0.2" d="M505.512 165.003C498.729 161.131 488.307 158.442 473.609 163.018C473.609 163.018 478.919 137.463 502.043 146.122L502.609 146.347C503.981 147.065 505.164 148.092 506.064 149.347C508.16 152.557 506.659 160.512 505.512 165.003Z" fill="white"/>
<path d="M476.186 164.384C473.085 165.004 462.862 157.893 466.926 154.669C470.197 152.078 479.372 151.318 486.58 152.965C499.933 156.035 505.752 164.905 505.752 164.905C505.752 164.905 488.69 159.456 476.186 164.384Z" fill="#003B1E"/>
<path opacity="0.2" d="M476.186 164.384C473.085 165.004 462.862 157.893 466.926 154.669C470.197 152.078 479.372 151.318 486.58 152.965C499.933 156.035 505.752 164.905 505.752 164.905C505.752 164.905 488.69 159.456 476.186 164.384Z" fill="black"/>
<path d="M515.509 176.957C515.107 178.31 514.442 179.571 513.55 180.668C512.659 181.765 511.558 182.676 510.312 183.35C506.97 185.138 504.478 182.364 504.648 178.788C504.874 175.62 506.857 170.776 510.567 170.495C514.277 170.213 516.457 173.592 515.509 176.957Z" fill="#B97964"/>
<path d="M467.011 243.584L463.216 269.914L470.296 269.773L469.376 281.797L462.522 281.614L460.398 286.486L472.449 287.668L480.378 244.837L467.011 243.584ZM468.696 264.169L472.18 250.188L474.658 250.385L472.236 264.099L468.696 264.169Z" fill="#003B1E"/>
<path d="M485.688 244.992L481.879 270.998L488.959 270.857L488.053 283.205H481.199L479.075 288.175L491.125 289.386L499.055 246.414L485.688 244.992ZM487.43 265.253L490.913 251.581H493.391L490.97 265.126L487.43 265.253Z" fill="#003B1E"/>
<path d="M533.293 247.808C533.293 247.808 521.187 281.023 517.604 287.992C514.022 294.962 443.505 301.833 443.505 301.833C443.505 301.833 427.929 311.858 425.097 311.393C422.265 310.929 415.78 297.778 418.612 296.37C421.444 294.962 430.053 285.275 434.711 285.43C439.37 285.585 443.448 290.738 443.448 290.738C443.448 290.738 501.504 274.194 504.634 272.969C506.871 272.082 516.046 239.923 516.046 239.923L533.293 247.808Z" fill="#B97964"/>
<path d="M532.218 215.959C546.689 222.013 532.218 263.395 532.218 263.395L510.185 254.074C510.185 254.074 517.406 209.792 532.218 215.959Z" fill="#003B1E"/>
<path opacity="0.6" d="M532.218 215.959C546.689 222.013 532.218 263.395 532.218 263.395L510.185 254.074C510.185 254.074 517.406 209.792 532.218 215.959Z" fill="white"/>
<path d="M509.052 250.751L534.894 261.874L532.232 267.464L507.636 256.383L509.052 250.751Z" fill="#003B1E"/>
<path d="M591.492 503.121C591.492 503.121 588.886 475.693 576.779 474.961C564.673 474.228 565.692 500.305 565.692 500.305" stroke="#263238" stroke-linecap="round" stroke-linejoin="round"/>
<path d="M539.963 585.728H605.099L597.084 514.356L599.916 497.024H545.627L549.308 514.173L539.963 585.728Z" fill="#A10702"/>
<path opacity="0.2" d="M580.56 497.024L582.925 516.032L577.884 585.362L589.056 574.013L605.099 585.728L597.085 514.356L599.917 497.024H580.56Z" fill="black"/>
<path opacity="0.2" d="M589.523 574.464V512.512L591.492 497.024H581.027L582.925 514.863L577.884 585.362L589.523 574.464Z" fill="black"/>
<path d="M555.312 503.121C555.312 503.121 561.798 473.848 574.074 474.06C586.351 474.271 572.531 503.121 572.531 503.121" stroke="#263238" stroke-linecap="round" stroke-linejoin="round"/>
<path d="M310.189 535.04L308.773 531.309C289.7 532.182 287.533 525.043 287.364 522.762C287.01 518.538 290.833 514.709 295.86 514.202C302.84 513.484 307.499 519.411 309.878 523.523C313.475 519.214 320.441 515.342 325.695 515.342C327.505 515.241 329.291 515.789 330.728 516.887C332.165 517.986 333.158 519.561 333.525 521.326C333.846 522.406 333.884 523.55 333.637 524.649C333.389 525.748 332.863 526.765 332.109 527.606C327.677 532.576 314.891 531.689 311.039 531.295L310.189 535.04ZM312.455 527.169C318.247 527.676 326.615 527.451 329.036 524.804C329.325 524.473 329.517 524.069 329.591 523.638C329.666 523.206 329.621 522.762 329.461 522.354C329.335 521.496 328.876 520.721 328.183 520.195C327.489 519.669 326.617 519.433 325.751 519.538C321.107 519.552 314.565 523.776 312.455 527.155V527.169ZM296.992 518.369H296.327C293.495 518.665 291.456 520.721 291.597 522.382C291.739 524.044 295.265 527.409 307.06 527.113C305.602 524.212 302.062 518.355 296.992 518.355V518.369Z" fill="#263238"/>
<path d="M351.168 529.169H268.389V585.714H351.168V529.169Z" fill="#CC952E"/>
<path opacity="0.2" d="M351.168 548.712H268.389V585.714H351.168V548.712Z" fill="black"/>
<path opacity="0.2" d="M301.282 529.169H268.389V585.714H301.282V529.169Z" fill="black"/>
<g opacity="0.3">
<path d="M301.254 573.408V577.181L304.751 585.728H306.295L301.254 573.408Z" fill="white"/>
<path d="M301.254 549.176V552.922L314.663 585.728H316.207L301.254 549.176Z" fill="white"/>
<path d="M326.119 585.728L302.981 529.141H301.452L324.575 585.728H326.119Z" fill="white"/>
<path d="M336.031 585.728L312.894 529.141H311.364L334.488 585.728H336.031Z" fill="white"/>
<path d="M345.943 585.728L322.806 529.141H321.276L344.4 585.728H345.943Z" fill="white"/>
<path d="M331.174 529.141L351.168 579.392V575.619L332.703 529.141H331.174Z" fill="white"/>
<path d="M341.086 529.141L351.168 555.076V551.302L342.615 529.141H341.086Z" fill="white"/>
</g>
<g opacity="0.2">
<path d="M268.445 550.683V554.428L275.61 585.728H276.474L268.445 550.683Z" fill="white"/>
<path d="M269.068 529.141H268.445V530.182L281.147 585.728H282.011L269.068 529.141Z" fill="white"/>
<path d="M287.561 585.728L274.619 529.141H273.755L286.697 585.728H287.561Z" fill="white"/>
<path d="M293.112 585.728L280.155 529.141H279.306L292.234 585.728H293.112Z" fill="white"/>
<path d="M298.648 585.728L285.706 529.141H284.856L297.785 585.728H298.648Z" fill="white"/>
<path d="M301.254 574.168L291.243 529.141H290.394L301.254 577.942V574.168Z" fill="white"/>
<path d="M301.254 549.81L296.794 529.141H295.944L301.254 553.583V549.81Z" fill="white"/>
</g>
<path d="M330.282 529.169H323.556V585.714H330.282V529.169Z" fill="#263238"/>
<path d="M284.956 529.169H280.014V585.714H284.956V529.169Z" fill="#263238"/>
<path d="M363.444 549.021C360.839 549.289 352.116 549.937 349.185 546.571C348.681 546.093 348.325 545.48 348.159 544.807C347.994 544.133 348.025 543.426 348.251 542.77C348.902 540.193 350.828 539.264 353.547 539.264C357.634 539.451 361.479 541.244 364.237 544.248C365.852 541.432 368.995 537.096 373.725 537.574C377.165 537.912 379.757 540.39 379.516 543.277C379.374 544.826 377.93 549.613 365.03 549.021L364.067 551.514L363.444 549.021ZM353.532 542.08C352.116 542.08 351.352 542.193 351.012 543.488C350.785 544.403 351.012 544.53 351.309 544.826C352.909 546.614 358.602 547.107 362.524 546.769C361.432 545.419 360.073 544.307 358.531 543.501C356.989 542.694 355.298 542.211 353.561 542.08H353.532ZM366.177 546.149C374.149 546.36 376.528 544.206 376.627 542.953C376.727 541.7 375.381 540.433 373.427 540.25H372.988C369.576 540.221 367.183 544.178 366.206 546.149H366.177Z" fill="#093824"/>
<path d="M336.357 585.728H392.359V547.473H336.357V585.728Z" fill="#CC952E"/>
<path opacity="0.6" d="M336.357 585.728H392.359V547.473H336.357V585.728Z" fill="white"/>
<path opacity="0.1" d="M336.357 585.728H392.359V560.694H336.357V585.728Z" fill="black"/>
<path opacity="0.2" d="M370.114 585.728H392.359V547.473H370.114V585.728Z" fill="white"/>
<g opacity="0.4">
<path d="M337.716 551.232C338.091 551.232 338.395 550.778 338.395 550.218C338.395 549.658 338.091 549.204 337.716 549.204C337.34 549.204 337.036 549.658 337.036 550.218C337.036 550.778 337.34 551.232 337.716 551.232Z" fill="white"/>
<path d="M343.21 550.218C343.21 550.781 342.898 551.232 342.53 551.232C342.162 551.232 341.851 550.781 341.851 550.218C341.851 549.655 342.148 549.19 342.53 549.19C342.913 549.19 343.21 549.655 343.21 550.218Z" fill="white"/>
<path d="M347.345 551.232C347.72 551.232 348.024 550.778 348.024 550.218C348.024 549.658 347.72 549.204 347.345 549.204C346.969 549.204 346.665 549.658 346.665 550.218C346.665 550.778 346.969 551.232 347.345 551.232Z" fill="white"/>
<path d="M352.825 550.218C352.825 550.781 352.527 551.232 352.159 551.232C351.791 551.232 351.479 550.781 351.479 550.218C351.479 549.655 351.777 549.19 352.159 549.19C352.541 549.19 352.825 549.655 352.825 550.218Z" fill="white"/>
<path d="M356.959 551.232C357.334 551.232 357.639 550.778 357.639 550.218C357.639 549.658 357.334 549.204 356.959 549.204C356.584 549.204 356.279 549.658 356.279 550.218C356.279 550.778 356.584 551.232 356.959 551.232Z" fill="white"/>
<path d="M362.496 550.218C362.496 550.781 362.199 551.232 361.816 551.232C361.434 551.232 361.137 550.781 361.137 550.218C361.137 549.655 361.448 549.19 361.816 549.19C362.185 549.19 362.496 549.655 362.496 550.218Z" fill="white"/>
<path d="M366.588 551.232C366.963 551.232 367.268 550.778 367.268 550.218C367.268 549.658 366.963 549.204 366.588 549.204C366.213 549.204 365.908 549.658 365.908 550.218C365.908 550.778 366.213 551.232 366.588 551.232Z" fill="white"/>
<path d="M340.803 553.949C340.803 554.513 340.491 554.963 340.123 554.963C339.755 554.963 339.443 554.513 339.443 553.949C339.443 553.386 339.755 552.936 340.123 552.936C340.491 552.936 340.803 553.344 340.803 553.949Z" fill="white"/>
<path d="M345.603 553.949C345.603 554.513 345.306 554.963 344.938 554.963C344.569 554.963 344.258 554.513 344.258 553.949C344.258 553.386 344.555 552.936 344.938 552.936C345.32 552.936 345.603 553.344 345.603 553.949Z" fill="white"/>
<path d="M350.417 553.949C350.417 554.513 350.12 554.963 349.752 554.963C349.384 554.963 349.072 554.513 349.072 553.949C349.072 553.386 349.37 552.936 349.752 552.936C350.134 552.936 350.417 553.344 350.417 553.949Z" fill="white"/>
<path d="M355.232 553.949C355.232 554.513 354.935 554.963 354.552 554.963C354.17 554.963 353.887 554.513 353.887 553.949C353.887 553.386 354.184 552.936 354.552 552.936C354.92 552.936 355.232 553.344 355.232 553.949Z" fill="white"/>
<path d="M360.046 553.949C360.046 554.513 359.749 554.963 359.367 554.963C358.984 554.963 358.701 554.513 358.701 553.949C358.701 553.386 358.999 552.936 359.367 552.936C359.735 552.936 360.046 553.344 360.046 553.949Z" fill="white"/>
<path d="M364.86 553.949C364.86 554.513 364.549 554.963 364.181 554.963C363.813 554.963 363.501 554.513 363.501 553.949C363.501 553.386 363.813 552.936 364.181 552.936C364.549 552.936 364.86 553.344 364.86 553.949Z" fill="white"/>
<path d="M369.675 553.949C369.675 554.513 369.363 554.963 368.995 554.963C368.627 554.963 368.315 554.513 368.315 553.949C368.315 553.386 368.627 552.936 368.995 552.936C369.363 552.936 369.675 553.344 369.675 553.949Z" fill="white"/>
<path d="M337.716 559.427C338.091 559.427 338.395 558.973 338.395 558.413C338.395 557.853 338.091 557.399 337.716 557.399C337.34 557.399 337.036 557.853 337.036 558.413C337.036 558.973 337.34 559.427 337.716 559.427Z" fill="white"/>
<path d="M343.21 558.413C343.21 558.976 342.898 559.427 342.53 559.427C342.162 559.427 341.851 558.976 341.851 558.413C341.851 557.85 342.148 557.385 342.53 557.385C342.913 557.385 343.21 557.85 343.21 558.413Z" fill="white"/>
<path d="M347.345 559.427C347.72 559.427 348.024 558.973 348.024 558.413C348.024 557.853 347.72 557.399 347.345 557.399C346.969 557.399 346.665 557.853 346.665 558.413C346.665 558.973 346.969 559.427 347.345 559.427Z" fill="white"/>
<path d="M352.825 558.413C352.825 558.976 352.527 559.427 352.159 559.427C351.791 559.427 351.479 558.976 351.479 558.413C351.479 557.85 351.777 557.385 352.159 557.385C352.541 557.385 352.825 557.85 352.825 558.413Z" fill="white"/>
<path d="M356.959 559.427C357.334 559.427 357.639 558.973 357.639 558.413C357.639 557.853 357.334 557.399 356.959 557.399C356.584 557.399 356.279 557.853 356.279 558.413C356.279 558.973 356.584 559.427 356.959 559.427Z" fill="white"/>
<path d="M362.496 558.413C362.496 558.976 362.199 559.427 361.816 559.427C361.434 559.427 361.137 558.976 361.137 558.413C361.137 557.85 361.448 557.385 361.816 557.385C362.185 557.385 362.496 557.85 362.496 558.413Z" fill="white"/>
<path d="M366.588 559.427C366.963 559.427 367.268 558.973 367.268 558.413C367.268 557.853 366.963 557.399 366.588 557.399C366.213 557.399 365.908 557.853 365.908 558.413C365.908 558.973 366.213 559.427 366.588 559.427Z" fill="white"/>
<path d="M340.803 562.144C340.803 562.707 340.491 563.158 340.123 563.158C339.755 563.158 339.443 562.707 339.443 562.144C339.443 561.581 339.755 561.13 340.123 561.13C340.491 561.13 340.803 561.581 340.803 562.144Z" fill="white"/>
<path d="M345.603 562.144C345.603 562.707 345.306 563.158 344.938 563.158C344.569 563.158 344.258 562.707 344.258 562.144C344.258 561.581 344.555 561.13 344.938 561.13C345.32 561.13 345.603 561.581 345.603 562.144Z" fill="white"/>
<path d="M350.417 562.144C350.417 562.707 350.12 563.158 349.752 563.158C349.384 563.158 349.072 562.707 349.072 562.144C349.072 561.581 349.37 561.13 349.752 561.13C350.134 561.13 350.417 561.581 350.417 562.144Z" fill="white"/>
<path d="M355.232 562.144C355.232 562.707 354.935 563.158 354.552 563.158C354.17 563.158 353.887 562.707 353.887 562.144C353.887 561.581 354.184 561.13 354.552 561.13C354.92 561.13 355.232 561.581 355.232 562.144Z" fill="white"/>
<path d="M360.046 562.144C360.046 562.707 359.749 563.158 359.367 563.158C358.984 563.158 358.701 562.707 358.701 562.144C358.701 561.581 358.999 561.13 359.367 561.13C359.735 561.13 360.046 561.581 360.046 562.144Z" fill="white"/>
<path d="M364.86 562.144C364.86 562.707 364.549 563.158 364.181 563.158C363.813 563.158 363.501 562.707 363.501 562.144C363.501 561.581 363.813 561.13 364.181 561.13C364.549 561.13 364.86 561.581 364.86 562.144Z" fill="white"/>
<path d="M369.675 562.144C369.675 562.707 369.363 563.158 368.995 563.158C368.627 563.158 368.315 562.707 368.315 562.144C368.315 561.581 368.627 561.13 368.995 561.13C369.363 561.13 369.675 561.581 369.675 562.144Z" fill="white"/>
<path d="M337.716 567.621C338.091 567.621 338.395 567.167 338.395 566.607C338.395 566.048 338.091 565.594 337.716 565.594C337.34 565.594 337.036 566.048 337.036 566.607C337.036 567.167 337.34 567.621 337.716 567.621Z" fill="white"/>
<path d="M343.21 566.607C343.21 567.171 342.898 567.621 342.53 567.621C342.162 567.621 341.851 567.171 341.851 566.607C341.851 566.044 342.148 565.58 342.53 565.58C342.913 565.58 343.21 566.016 343.21 566.607Z" fill="white"/>
<path d="M347.345 567.621C347.72 567.621 348.024 567.167 348.024 566.607C348.024 566.048 347.72 565.594 347.345 565.594C346.969 565.594 346.665 566.048 346.665 566.607C346.665 567.167 346.969 567.621 347.345 567.621Z" fill="white"/>
<path d="M352.825 566.607C352.825 567.171 352.527 567.621 352.159 567.621C351.791 567.621 351.479 567.171 351.479 566.607C351.479 566.044 351.777 565.58 352.159 565.58C352.541 565.58 352.825 566.016 352.825 566.607Z" fill="white"/>
<path d="M356.959 567.621C357.334 567.621 357.639 567.167 357.639 566.607C357.639 566.048 357.334 565.594 356.959 565.594C356.584 565.594 356.279 566.048 356.279 566.607C356.279 567.167 356.584 567.621 356.959 567.621Z" fill="white"/>
<path d="M362.496 566.607C362.496 567.171 362.199 567.621 361.816 567.621C361.434 567.621 361.137 567.171 361.137 566.607C361.137 566.044 361.448 565.58 361.816 565.58C362.185 565.58 362.496 566.016 362.496 566.607Z" fill="white"/>
<path d="M366.588 567.621C366.963 567.621 367.268 567.167 367.268 566.607C367.268 566.048 366.963 565.594 366.588 565.594C366.213 565.594 365.908 566.048 365.908 566.607C365.908 567.167 366.213 567.621 366.588 567.621Z" fill="white"/>
<path d="M340.803 570.339C340.803 570.902 340.491 571.352 340.123 571.352C339.755 571.352 339.443 570.902 339.443 570.339C339.443 569.775 339.755 569.325 340.123 569.325C340.491 569.325 340.803 569.775 340.803 570.339Z" fill="white"/>
<path d="M345.603 570.339C345.603 570.902 345.306 571.352 344.938 571.352C344.569 571.352 344.258 570.902 344.258 570.339C344.258 569.775 344.555 569.325 344.938 569.325C345.32 569.325 345.603 569.775 345.603 570.339Z" fill="white"/>
<path d="M350.417 570.339C350.417 570.902 350.12 571.352 349.752 571.352C349.384 571.352 349.072 570.902 349.072 570.339C349.072 569.775 349.37 569.325 349.752 569.325C350.134 569.325 350.417 569.775 350.417 570.339Z" fill="white"/>
<path d="M355.232 570.339C355.232 570.902 354.935 571.352 354.552 571.352C354.17 571.352 353.887 570.902 353.887 570.339C353.887 569.775 354.184 569.325 354.552 569.325C354.92 569.325 355.232 569.775 355.232 570.339Z" fill="white"/>
<path d="M360.046 570.339C360.046 570.902 359.749 571.352 359.367 571.352C358.984 571.352 358.701 570.902 358.701 570.339C358.701 569.775 358.999 569.325 359.367 569.325C359.735 569.325 360.046 569.775 360.046 570.339Z" fill="white"/>
<path d="M364.86 570.339C364.86 570.902 364.549 571.352 364.181 571.352C363.813 571.352 363.501 570.902 363.501 570.339C363.501 569.775 363.813 569.325 364.181 569.325C364.549 569.325 364.86 569.775 364.86 570.339Z" fill="white"/>
<path d="M369.675 570.339C369.675 570.902 369.363 571.352 368.995 571.352C368.627 571.352 368.315 570.902 368.315 570.339C368.315 569.775 368.627 569.325 368.995 569.325C369.363 569.325 369.675 569.775 369.675 570.339Z" fill="white"/>
<path d="M337.716 575.816C338.091 575.816 338.395 575.362 338.395 574.802C338.395 574.242 338.091 573.788 337.716 573.788C337.34 573.788 337.036 574.242 337.036 574.802C337.036 575.362 337.34 575.816 337.716 575.816Z" fill="white"/>
<path d="M343.21 574.802C343.21 575.365 342.898 575.816 342.53 575.816C342.162 575.816 341.851 575.365 341.851 574.802C341.851 574.239 342.148 573.774 342.53 573.774C342.913 573.774 343.21 574.239 343.21 574.802Z" fill="white"/>
<path d="M347.345 575.816C347.72 575.816 348.024 575.362 348.024 574.802C348.024 574.242 347.72 573.788 347.345 573.788C346.969 573.788 346.665 574.242 346.665 574.802C346.665 575.362 346.969 575.816 347.345 575.816Z" fill="white"/>
<path d="M352.825 574.802C352.825 575.365 352.527 575.816 352.159 575.816C351.791 575.816 351.479 575.365 351.479 574.802C351.479 574.239 351.777 573.774 352.159 573.774C352.541 573.774 352.825 574.239 352.825 574.802Z" fill="white"/>
<path d="M356.959 575.816C357.334 575.816 357.639 575.362 357.639 574.802C357.639 574.242 357.334 573.788 356.959 573.788C356.584 573.788 356.279 574.242 356.279 574.802C356.279 575.362 356.584 575.816 356.959 575.816Z" fill="white"/>
<path d="M362.496 574.802C362.496 575.365 362.199 575.816 361.816 575.816C361.434 575.816 361.137 575.365 361.137 574.802C361.137 574.239 361.448 573.774 361.816 573.774C362.185 573.774 362.496 574.239 362.496 574.802Z" fill="white"/>
<path d="M366.588 575.816C366.963 575.816 367.268 575.362 367.268 574.802C367.268 574.242 366.963 573.788 366.588 573.788C366.213 573.788 365.908 574.242 365.908 574.802C365.908 575.362 366.213 575.816 366.588 575.816Z" fill="white"/>
<path d="M340.803 578.533C340.803 579.096 340.491 579.547 340.123 579.547C339.755 579.547 339.443 579.096 339.443 578.533C339.443 577.97 339.755 577.519 340.123 577.519C340.491 577.519 340.803 577.97 340.803 578.533Z" fill="white"/>
<path d="M345.603 578.533C345.603 579.096 345.306 579.547 344.938 579.547C344.569 579.547 344.258 579.096 344.258 578.533C344.258 577.97 344.555 577.519 344.938 577.519C345.32 577.519 345.603 577.97 345.603 578.533Z" fill="white"/>
<path d="M350.417 578.533C350.417 579.096 350.12 579.547 349.752 579.547C349.384 579.547 349.072 579.096 349.072 578.533C349.072 577.97 349.37 577.519 349.752 577.519C350.134 577.519 350.417 577.97 350.417 578.533Z" fill="white"/>
<path d="M355.232 578.533C355.232 579.096 354.935 579.547 354.552 579.547C354.17 579.547 353.887 579.096 353.887 578.533C353.887 577.97 354.184 577.519 354.552 577.519C354.92 577.519 355.232 577.97 355.232 578.533Z" fill="white"/>
<path d="M360.046 578.533C360.046 579.096 359.749 579.547 359.367 579.547C358.984 579.547 358.701 579.096 358.701 578.533C358.701 577.97 358.999 577.519 359.367 577.519C359.735 577.519 360.046 577.97 360.046 578.533Z" fill="white"/>
<path d="M364.86 578.533C364.86 579.096 364.549 579.547 364.181 579.547C363.813 579.547 363.501 579.096 363.501 578.533C363.501 577.97 363.813 577.519 364.181 577.519C364.549 577.519 364.86 577.97 364.86 578.533Z" fill="white"/>
<path d="M369.675 578.533C369.675 579.096 369.363 579.547 368.995 579.547C368.627 579.547 368.315 579.096 368.315 578.533C368.315 577.97 368.627 577.519 368.995 577.519C369.363 577.519 369.675 577.97 369.675 578.533Z" fill="white"/>
<path d="M337.716 584.01C338.091 584.01 338.395 583.556 338.395 582.996C338.395 582.437 338.091 581.983 337.716 581.983C337.34 581.983 337.036 582.437 337.036 582.996C337.036 583.556 337.34 584.01 337.716 584.01Z" fill="white"/>
<path d="M343.21 582.996C343.21 583.56 342.898 584.01 342.53 584.01C342.162 584.01 341.851 583.56 341.851 582.996C341.851 582.433 342.148 581.969 342.53 581.969C342.913 581.969 343.21 582.433 343.21 582.996Z" fill="white"/>
<path d="M347.345 584.01C347.72 584.01 348.024 583.556 348.024 582.996C348.024 582.437 347.72 581.983 347.345 581.983C346.969 581.983 346.665 582.437 346.665 582.996C346.665 583.556 346.969 584.01 347.345 584.01Z" fill="white"/>
<path d="M352.825 582.996C352.825 583.56 352.527 584.01 352.159 584.01C351.791 584.01 351.479 583.56 351.479 582.996C351.479 582.433 351.777 581.969 352.159 581.969C352.541 581.969 352.825 582.433 352.825 582.996Z" fill="white"/>
<path d="M356.959 584.01C357.334 584.01 357.639 583.556 357.639 582.996C357.639 582.437 357.334 581.983 356.959 581.983C356.584 581.983 356.279 582.437 356.279 582.996C356.279 583.556 356.584 584.01 356.959 584.01Z" fill="white"/>
<path d="M362.496 582.996C362.496 583.56 362.199 584.01 361.816 584.01C361.434 584.01 361.137 583.56 361.137 582.996C361.137 582.433 361.448 581.969 361.816 581.969C362.185 581.969 362.496 582.433 362.496 582.996Z" fill="white"/>
<path d="M366.588 584.01C366.963 584.01 367.268 583.556 367.268 582.996C367.268 582.437 366.963 581.983 366.588 581.983C366.213 581.983 365.908 582.437 365.908 582.996C365.908 583.556 366.213 584.01 366.588 584.01Z" fill="white"/>
</g>
<g opacity="0.6">
<path d="M371.544 551.232C371.818 551.232 372.04 550.778 372.04 550.218C372.04 549.658 371.818 549.204 371.544 549.204C371.271 549.204 371.049 549.658 371.049 550.218C371.049 550.778 371.271 551.232 371.544 551.232Z" fill="white"/>
<path d="M375.098 551.232C375.372 551.232 375.594 550.778 375.594 550.218C375.594 549.658 375.372 549.204 375.098 549.204C374.824 549.204 374.603 549.658 374.603 550.218C374.603 550.778 374.824 551.232 375.098 551.232Z" fill="white"/>
<path d="M378.638 551.232C378.912 551.232 379.134 550.778 379.134 550.218C379.134 549.658 378.912 549.204 378.638 549.204C378.364 549.204 378.143 549.658 378.143 550.218C378.143 550.778 378.364 551.232 378.638 551.232Z" fill="white"/>
<path d="M382.193 551.232C382.467 551.232 382.688 550.778 382.688 550.218C382.688 549.658 382.467 549.204 382.193 549.204C381.919 549.204 381.697 549.658 381.697 550.218C381.697 550.778 381.919 551.232 382.193 551.232Z" fill="white"/>
<path d="M385.733 551.232C386.007 551.232 386.229 550.778 386.229 550.218C386.229 549.658 386.007 549.204 385.733 549.204C385.459 549.204 385.237 549.658 385.237 550.218C385.237 550.778 385.459 551.232 385.733 551.232Z" fill="white"/>
<path d="M389.782 550.218C389.782 550.781 389.556 551.232 389.287 551.232C389.018 551.232 388.791 550.781 388.791 550.218C388.791 549.655 389.018 549.19 389.287 549.19C389.556 549.19 389.782 549.655 389.782 550.218Z" fill="white"/>
<path d="M373.314 554.963C373.588 554.963 373.81 554.509 373.81 553.949C373.81 553.39 373.588 552.936 373.314 552.936C373.04 552.936 372.818 553.39 372.818 553.949C372.818 554.509 373.04 554.963 373.314 554.963Z" fill="white"/>
<path d="M376.869 554.963C377.142 554.963 377.364 554.509 377.364 553.949C377.364 553.39 377.142 552.936 376.869 552.936C376.595 552.936 376.373 553.39 376.373 553.949C376.373 554.509 376.595 554.963 376.869 554.963Z" fill="white"/>
<path d="M380.409 554.963C380.682 554.963 380.904 554.509 380.904 553.949C380.904 553.39 380.682 552.936 380.409 552.936C380.135 552.936 379.913 553.39 379.913 553.949C379.913 554.509 380.135 554.963 380.409 554.963Z" fill="white"/>
<path d="M383.962 554.963C384.236 554.963 384.458 554.509 384.458 553.949C384.458 553.39 384.236 552.936 383.962 552.936C383.689 552.936 383.467 553.39 383.467 553.949C383.467 554.509 383.689 554.963 383.962 554.963Z" fill="white"/>
<path d="M387.517 554.963C387.791 554.963 388.013 554.509 388.013 553.949C388.013 553.39 387.791 552.936 387.517 552.936C387.243 552.936 387.021 553.39 387.021 553.949C387.021 554.509 387.243 554.963 387.517 554.963Z" fill="white"/>
<path d="M391.057 554.963C391.331 554.963 391.553 554.509 391.553 553.949C391.553 553.39 391.331 552.936 391.057 552.936C390.783 552.936 390.562 553.39 390.562 553.949C390.562 554.509 390.783 554.963 391.057 554.963Z" fill="white"/>
<path d="M371.544 559.427C371.818 559.427 372.04 558.973 372.04 558.413C372.04 557.853 371.818 557.399 371.544 557.399C371.271 557.399 371.049 557.853 371.049 558.413C371.049 558.973 371.271 559.427 371.544 559.427Z" fill="white"/>
<path d="M375.098 559.427C375.372 559.427 375.594 558.973 375.594 558.413C375.594 557.853 375.372 557.399 375.098 557.399C374.824 557.399 374.603 557.853 374.603 558.413C374.603 558.973 374.824 559.427 375.098 559.427Z" fill="white"/>
<path d="M378.638 559.427C378.912 559.427 379.134 558.973 379.134 558.413C379.134 557.853 378.912 557.399 378.638 557.399C378.364 557.399 378.143 557.853 378.143 558.413C378.143 558.973 378.364 559.427 378.638 559.427Z" fill="white"/>
<path d="M382.193 559.427C382.467 559.427 382.688 558.973 382.688 558.413C382.688 557.853 382.467 557.399 382.193 557.399C381.919 557.399 381.697 557.853 381.697 558.413C381.697 558.973 381.919 559.427 382.193 559.427Z" fill="white"/>
<path d="M385.733 559.427C386.007 559.427 386.229 558.973 386.229 558.413C386.229 557.853 386.007 557.399 385.733 557.399C385.459 557.399 385.237 557.853 385.237 558.413C385.237 558.973 385.459 559.427 385.733 559.427Z" fill="white"/>
<path d="M389.782 558.413C389.782 558.976 389.556 559.427 389.287 559.427C389.018 559.427 388.791 558.976 388.791 558.413C388.791 557.85 389.018 557.385 389.287 557.385C389.556 557.385 389.782 557.85 389.782 558.413Z" fill="white"/>
<path d="M373.314 563.158C373.588 563.158 373.81 562.704 373.81 562.144C373.81 561.584 373.588 561.13 373.314 561.13C373.04 561.13 372.818 561.584 372.818 562.144C372.818 562.704 373.04 563.158 373.314 563.158Z" fill="white"/>
<path d="M376.869 563.158C377.142 563.158 377.364 562.704 377.364 562.144C377.364 561.584 377.142 561.13 376.869 561.13C376.595 561.13 376.373 561.584 376.373 562.144C376.373 562.704 376.595 563.158 376.869 563.158Z" fill="white"/>
<path d="M380.409 563.158C380.682 563.158 380.904 562.704 380.904 562.144C380.904 561.584 380.682 561.13 380.409 561.13C380.135 561.13 379.913 561.584 379.913 562.144C379.913 562.704 380.135 563.158 380.409 563.158Z" fill="white"/>
<path d="M383.962 563.158C384.236 563.158 384.458 562.704 384.458 562.144C384.458 561.584 384.236 561.13 383.962 561.13C383.689 561.13 383.467 561.584 383.467 562.144C383.467 562.704 383.689 563.158 383.962 563.158Z" fill="white"/>
<path d="M387.517 563.158C387.791 563.158 388.013 562.704 388.013 562.144C388.013 561.584 387.791 561.13 387.517 561.13C387.243 561.13 387.021 561.584 387.021 562.144C387.021 562.704 387.243 563.158 387.517 563.158Z" fill="white"/>
<path d="M391.057 563.158C391.331 563.158 391.553 562.704 391.553 562.144C391.553 561.584 391.331 561.13 391.057 561.13C390.783 561.13 390.562 561.584 390.562 562.144C390.562 562.704 390.783 563.158 391.057 563.158Z" fill="white"/>
<path d="M371.544 567.621C371.818 567.621 372.04 567.167 372.04 566.607C372.04 566.048 371.818 565.594 371.544 565.594C371.271 565.594 371.049 566.048 371.049 566.607C371.049 567.167 371.271 567.621 371.544 567.621Z" fill="white"/>
<path d="M375.098 567.621C375.372 567.621 375.594 567.167 375.594 566.607C375.594 566.048 375.372 565.594 375.098 565.594C374.824 565.594 374.603 566.048 374.603 566.607C374.603 567.167 374.824 567.621 375.098 567.621Z" fill="white"/>
<path d="M378.638 567.621C378.912 567.621 379.134 567.167 379.134 566.607C379.134 566.048 378.912 565.594 378.638 565.594C378.364 565.594 378.143 566.048 378.143 566.607C378.143 567.167 378.364 567.621 378.638 567.621Z" fill="white"/>
<path d="M382.193 567.621C382.467 567.621 382.688 567.167 382.688 566.607C382.688 566.048 382.467 565.594 382.193 565.594C381.919 565.594 381.697 566.048 381.697 566.607C381.697 567.167 381.919 567.621 382.193 567.621Z" fill="white"/>
<path d="M385.733 567.621C386.007 567.621 386.229 567.167 386.229 566.607C386.229 566.048 386.007 565.594 385.733 565.594C385.459 565.594 385.237 566.048 385.237 566.607C385.237 567.167 385.459 567.621 385.733 567.621Z" fill="white"/>
<path d="M389.782 566.607C389.782 567.171 389.556 567.621 389.287 567.621C389.018 567.621 388.791 567.171 388.791 566.607C388.791 566.044 389.018 565.58 389.287 565.58C389.556 565.58 389.782 566.016 389.782 566.607Z" fill="white"/>
<path d="M373.314 571.352C373.588 571.352 373.81 570.898 373.81 570.339C373.81 569.779 373.588 569.325 373.314 569.325C373.04 569.325 372.818 569.779 372.818 570.339C372.818 570.898 373.04 571.352 373.314 571.352Z" fill="white"/>
<path d="M376.869 571.352C377.142 571.352 377.364 570.898 377.364 570.339C377.364 569.779 377.142 569.325 376.869 569.325C376.595 569.325 376.373 569.779 376.373 570.339C376.373 570.898 376.595 571.352 376.869 571.352Z" fill="white"/>
<path d="M380.409 571.352C380.682 571.352 380.904 570.898 380.904 570.339C380.904 569.779 380.682 569.325 380.409 569.325C380.135 569.325 379.913 569.779 379.913 570.339C379.913 570.898 380.135 571.352 380.409 571.352Z" fill="white"/>
<path d="M383.962 571.352C384.236 571.352 384.458 570.898 384.458 570.339C384.458 569.779 384.236 569.325 383.962 569.325C383.689 569.325 383.467 569.779 383.467 570.339C383.467 570.898 383.689 571.352 383.962 571.352Z" fill="white"/>
<path d="M387.517 571.352C387.791 571.352 388.013 570.898 388.013 570.339C388.013 569.779 387.791 569.325 387.517 569.325C387.243 569.325 387.021 569.779 387.021 570.339C387.021 570.898 387.243 571.352 387.517 571.352Z" fill="white"/>
<path d="M391.057 571.352C391.331 571.352 391.553 570.898 391.553 570.339C391.553 569.779 391.331 569.325 391.057 569.325C390.783 569.325 390.562 569.779 390.562 570.339C390.562 570.898 390.783 571.352 391.057 571.352Z" fill="white"/>
<path d="M371.544 575.816C371.818 575.816 372.04 575.362 372.04 574.802C372.04 574.242 371.818 573.788 371.544 573.788C371.271 573.788 371.049 574.242 371.049 574.802C371.049 575.362 371.271 575.816 371.544 575.816Z" fill="white"/>
<path d="M375.098 575.816C375.372 575.816 375.594 575.362 375.594 574.802C375.594 574.242 375.372 573.788 375.098 573.788C374.824 573.788 374.603 574.242 374.603 574.802C374.603 575.362 374.824 575.816 375.098 575.816Z" fill="white"/>
<path d="M378.638 575.816C378.912 575.816 379.134 575.362 379.134 574.802C379.134 574.242 378.912 573.788 378.638 573.788C378.364 573.788 378.143 574.242 378.143 574.802C378.143 575.362 378.364 575.816 378.638 575.816Z" fill="white"/>
<path d="M382.193 575.816C382.467 575.816 382.688 575.362 382.688 574.802C382.688 574.242 382.467 573.788 382.193 573.788C381.919 573.788 381.697 574.242 381.697 574.802C381.697 575.362 381.919 575.816 382.193 575.816Z" fill="white"/>
<path d="M385.733 575.816C386.007 575.816 386.229 575.362 386.229 574.802C386.229 574.242 386.007 573.788 385.733 573.788C385.459 573.788 385.237 574.242 385.237 574.802C385.237 575.362 385.459 575.816 385.733 575.816Z" fill="white"/>
<path d="M389.782 574.802C389.782 575.365 389.556 575.816 389.287 575.816C389.018 575.816 388.791 575.365 388.791 574.802C388.791 574.239 389.018 573.774 389.287 573.774C389.556 573.774 389.782 574.239 389.782 574.802Z" fill="white"/>
<path d="M373.314 579.547C373.588 579.547 373.81 579.093 373.81 578.533C373.81 577.973 373.588 577.519 373.314 577.519C373.04 577.519 372.818 577.973 372.818 578.533C372.818 579.093 373.04 579.547 373.314 579.547Z" fill="white"/>
<path d="M376.869 579.547C377.142 579.547 377.364 579.093 377.364 578.533C377.364 577.973 377.142 577.519 376.869 577.519C376.595 577.519 376.373 577.973 376.373 578.533C376.373 579.093 376.595 579.547 376.869 579.547Z" fill="white"/>
<path d="M380.409 579.547C380.682 579.547 380.904 579.093 380.904 578.533C380.904 577.973 380.682 577.519 380.409 577.519C380.135 577.519 379.913 577.973 379.913 578.533C379.913 579.093 380.135 579.547 380.409 579.547Z" fill="white"/>
<path d="M383.962 579.547C384.236 579.547 384.458 579.093 384.458 578.533C384.458 577.973 384.236 577.519 383.962 577.519C383.689 577.519 383.467 577.973 383.467 578.533C383.467 579.093 383.689 579.547 383.962 579.547Z" fill="white"/>
<path d="M387.517 579.547C387.791 579.547 388.013 579.093 388.013 578.533C388.013 577.973 387.791 577.519 387.517 577.519C387.243 577.519 387.021 577.973 387.021 578.533C387.021 579.093 387.243 579.547 387.517 579.547Z" fill="white"/>
<path d="M391.057 579.547C391.331 579.547 391.553 579.093 391.553 578.533C391.553 577.973 391.331 577.519 391.057 577.519C390.783 577.519 390.562 577.973 390.562 578.533C390.562 579.093 390.783 579.547 391.057 579.547Z" fill="white"/>
<path d="M371.544 584.01C371.818 584.01 372.04 583.556 372.04 582.996C372.04 582.437 371.818 581.983 371.544 581.983C371.271 581.983 371.049 582.437 371.049 582.996C371.049 583.556 371.271 584.01 371.544 584.01Z" fill="white"/>
<path d="M375.098 584.01C375.372 584.01 375.594 583.556 375.594 582.996C375.594 582.437 375.372 581.983 375.098 581.983C374.824 581.983 374.603 582.437 374.603 582.996C374.603 583.556 374.824 584.01 375.098 584.01Z" fill="white"/>
<path d="M378.638 584.01C378.912 584.01 379.134 583.556 379.134 582.996C379.134 582.437 378.912 581.983 378.638 581.983C378.364 581.983 378.143 582.437 378.143 582.996C378.143 583.556 378.364 584.01 378.638 584.01Z" fill="white"/>
<path d="M382.193 584.01C382.467 584.01 382.688 583.556 382.688 582.996C382.688 582.437 382.467 581.983 382.193 581.983C381.919 581.983 381.697 582.437 381.697 582.996C381.697 583.556 381.919 584.01 382.193 584.01Z" fill="white"/>
<path d="M385.733 584.01C386.007 584.01 386.229 583.556 386.229 582.996C386.229 582.437 386.007 581.983 385.733 581.983C385.459 581.983 385.237 582.437 385.237 582.996C385.237 583.556 385.459 584.01 385.733 584.01Z" fill="white"/>
<path d="M389.782 582.996C389.782 583.56 389.556 584.01 389.287 584.01C389.018 584.01 388.791 583.56 388.791 582.996C388.791 582.433 389.018 581.969 389.287 581.969C389.556 581.969 389.782 582.433 389.782 582.996Z" fill="white"/>
</g>
<path d="M350.503 585.728H355.048V547.473H350.503V585.728Z" fill="#093824"/>
<path d="M381.159 585.728H384.501V547.473H381.159V585.728Z" fill="#093824"/>
</svg>
