<?xml version="1.0" encoding="utf-8"?>
<!-- Generator: Adobe Illustrator 23.0.6, SVG Export Plug-In . SVG Version: 6.00 Build 0)  -->
<svg version="1.1" id="Layer_1" xmlns="http://www.w3.org/2000/svg" xmlns:xlink="http://www.w3.org/1999/xlink" x="0px" y="0px"
	 viewBox="0 0 101.5 97.8" style="enable-background:new 0 0 101.5 97.8;" xml:space="preserve">
<style type="text/css">
	.st0{fill:none;}
	.st1{fill:#010101;}
	.st2{fill:#901A1C;}
	.st3{fill:#D52027;}
	.st4{fill:#003B1E;}
	.st5{fill:#FFFFFF;}
</style>
<g>
	<g>
		<path class="st0" d="M53.5,33c0,0.2,0,0.3-0.1,0.5c-0.1,1-0.4,1.9-0.8,2.8c-1,2.3-2.5,4.2-4.5,5.7c0,0-0.1,0.1-0.1,0.1
			c-0.1,0.1-0.2,0.1-0.3,0.2C47,43,46,43.6,45,43.9c-0.3,0.1-0.4,0.2-0.4,0.5c-0.2,1.3-0.2,2.5-0.2,3.8V49c0,0.2,0.1,0.3,0.2,0.3
			c0,0,0.1,0,0.1,0c0.2-0.1,0.3-0.2,0.5-0.2c0.1,0,0.2-0.1,0.2-0.1c2.6-1.2,5.3-2.1,8-2.6c0.9-0.2,1.8-0.3,2.7-0.3h0.5
			c0.5,0,0.9,0.1,1.4,0.2c0-0.4,0-0.8,0-1.2c0-0.5,0-1.1,0-1.6c0.1-3.3,0.3-6.6,0.5-9.8c-0.2,0-0.4,0-0.6,0
			C56.4,33.6,55,33.4,53.5,33z"/>
		<path class="st4" d="M27.6,33.8c0,0.4,0.2,0.8,0.5,1.2c0.4,0.5,0.9,0.7,1.4,0.7c0.1,0,0.4,0,0.7-0.1c0.4-0.1,0.7-0.5,1-1.1
			c0.1-0.1,0.1-0.3,0.1-0.5c0-0.2,0-0.3,0-0.5c0-0.6-0.1-1.2-0.3-1.8c-0.3-0.7-0.8-1-1.5-1.1h-0.1c-0.6,0-1.1,0.3-1.4,0.8
			c-0.3,0.5-0.4,0.9-0.4,1.4V33c0,0.1,0,0.2,0,0.3C27.6,33.5,27.6,33.6,27.6,33.8z"/>
		<path class="st0" d="M72.4,22.4c0.3,0.1,0.7,0.2,1,0.3C73.1,22.6,72.8,22.6,72.4,22.4L72.4,22.4z"/>
		<path class="st0" d="M44.7,51.7c0,0,0,0.1,0,0.2V52c0.1,1.2,0.4,2.4,0.7,3.6s0.8,2.3,1.4,3.3c0.3,0.6,0.8,1.1,1.3,1.6
			c0.5,0.4,1,0.7,1.5,0.7c0.6,0,1.2-0.4,1.6-1.3c0.3-0.7,0.5-1.5,0.5-2.2c0-1.6-0.6-3-1.6-4.2c-1.1-1.2-2.7-1.8-4.9-1.8
			C44.8,51.6,44.7,51.6,44.7,51.7z"/>
		<path class="st0" d="M45,42.7L45,42.7c0.1,0,0.2,0,0.2,0l0.2-0.2c0,0,0,0,0.1,0c2.1-1.6,3.8-3.5,5-5.8c0.4-0.7,0.6-1.4,0.8-2.1
			c0.2-0.5,0.3-1.1,0.3-1.7v-0.1c0-0.4-0.1-0.7-0.2-1.1c-0.2-0.4-0.5-0.6-0.8-0.6c-0.2,0-0.3,0-0.5,0.1c-0.3,0.2-0.6,0.3-0.9,0.6
			c-0.4,0.4-0.8,0.9-1.1,1.4c-0.5,0.8-1,1.7-1.3,2.6c-0.8,2.1-1.4,4.3-1.7,6.5c0,0.1,0,0.2,0,0.3v0c0,0,0,0.1,0,0.2
			C44.9,42.7,44.9,42.7,45,42.7z"/>
		<path class="st0" d="M87,58.8C87,58.8,87,58.8,87,58.8c-0.3,0.1-0.4,0.1-0.5,0.2c-1.8,0.8-3.4,2-4.8,3.4c-0.5,0.5-0.9,1-1.2,1.5
			c-0.4,0.7-0.6,1.5-0.6,2.3v0.3c0,0.5,0.2,1,0.4,1.4c0.5,0.8,1.2,1.3,2,1.3c0.2,0,0.5-0.1,0.7-0.1c0.3-0.1,0.6-0.2,0.9-0.4
			c0.6-0.4,1.1-0.9,1.5-1.5c0.5-0.7,0.9-1.5,1.2-2.4c0.4-1.3,0.6-2.7,0.6-4v-0.7c0-0.4-0.1-0.7-0.1-1.1C87.2,58.9,87.1,58.8,87,58.8
			z"/>
		<path class="st0" d="M16.4,57.7c0-0.2-0.1-0.3-0.2-0.3c0,0-0.1,0-0.2,0.1c-1.7,1-3.3,2.2-4.7,3.6c-0.7,0.8-1.3,1.7-1.7,2.6
			c-0.3,0.7-0.5,1.5-0.5,2.3v0.2c0,0.4,0.1,0.7,0.3,1.1c0.4,0.7,0.9,1.1,1.7,1.1c0.1,0,0.2,0,0.3,0c0.6-0.1,1.1-0.3,1.6-0.6
			c0.6-0.4,1.2-1,1.6-1.6c0.5-0.8,1-1.7,1.2-2.6c0.4-1.3,0.6-2.7,0.6-4.1c0-0.2,0-0.3,0-0.5C16.4,58.5,16.4,58.2,16.4,57.7z"/>
		<path class="st0" d="M15.6,42.2c-0.1-0.3-0.3-0.6-0.5-0.9c-0.7-0.9-1.4-1.3-2.2-1.3c-0.6,0-1.3,0.3-1.9,0.8
			c-0.6,0.5-1.1,1.1-1.4,1.8c-0.8,1.6-1.3,3.1-1.3,4.7v0.1c0,1.6,0.3,3,0.9,4.2c0.2,0.4,0.4,0.8,0.8,1.1c0.3,0.3,0.6,0.5,0.9,0.5
			c0.2,0,0.5-0.1,0.7-0.2c0.4-0.2,0.8-0.5,1.1-0.9c0.4-0.5,0.8-1.1,1.1-1.8c0.4-0.8,0.6-1.6,0.9-2.5c0.1-0.3,0.2-0.6,0.3-1
			c0.2-0.9,0.5-1.7,0.8-2.5c0.1-0.3,0.2-0.6,0.2-0.9C15.9,42.9,15.8,42.6,15.6,42.2L15.6,42.2z"/>
		<path class="st4" d="M26.1,46.9c-0.3,0.4-0.6,0.8-0.9,1.2c-0.8,1.1-1.7,2.2-2.7,3.1c-0.2,0.2-0.4,0.3-0.6,0.5c0,0-0.1,0.1-0.1,0.1
			c0,0,0,0,0,0c0,0-0.1,0-0.1,0c0,0-0.1-0.1-0.1-0.1c0,0,0-0.1,0-0.2v0c0-0.2,0-0.3,0-0.5l0-1c0-0.8-0.1-1.6-0.1-2.4
			c0-0.8,0-1.6,0-2.4c0-1.3,0-2.7,0.1-4c0-0.5,0.1-1,0.1-1.5l0-0.9c0-0.1,0-0.2,0-0.3c0-0.4-0.1-0.8-0.3-1.1
			c-0.3-0.6-0.7-0.9-1.3-0.9h-0.3c-0.5,0-1.1,0.1-1.6,0.3c-0.5,0.2-0.9,0.5-1,1.1c0,0.1,0,0.1-0.1,0.2c-0.2,0.5-0.4,1.1-0.4,1.7
			c0,0,0,0,0,0l0,0.1c0,0,0,0.1,0,0.1c0,0,0,0.1-0.1,0.1h0c0,0,0,0,0,0c-0.1-0.1-0.2-0.2-0.3-0.3c0-0.1-0.1-0.1-0.1-0.2
			c-1-1.4-2.4-2-4.1-2h-0.1c-0.6,0-1.2,0.1-1.8,0.3C9,38,8,38.5,7.2,39.3c-1.6,1.3-2.8,3-3.7,4.9c-0.6,1.4-0.9,2.8-0.9,4.3
			c0,0.2,0,0.5,0,0.7c0.1,1.6,0.5,3.1,1.4,4.5c0.7,1.1,1.6,2,2.7,2.6c0.9,0.4,1.7,0.6,2.4,0.6c1.4,0,2.6-0.6,3.7-2
			c0.5-0.7,1-1.4,1.3-2.2c0.4-0.9,0.7-1.9,1-2.9c0,0,0-0.1,0-0.2c0-0.1,0.1-0.2,0.1-0.3c0.1-0.1,0.1-0.3,0.3-0.3c0,0.1,0,0.2,0,0.2
			c0,0.1,0,0.2,0,0.3c0,1.8,0.2,3.5,0.5,5.3v0.2c0,0,0,0.1,0,0.1c0,0.3,0,0.5,0,0.6s0,0.2-0.1,0.3c-0.1,0.1-0.2,0.2-0.4,0.3
			c-0.1,0-0.2,0.1-0.3,0.2c-1.3,0.8-2.4,1.6-3.6,2.6c-1,0.9-1.9,1.9-2.7,3.1c-0.6,0.9-1,1.8-1.2,2.8c-0.1,0.6-0.2,1.1-0.2,1.6
			c0,0.4,0.1,0.9,0.1,1.3c0.4,1.6,1.4,2.6,3.1,2.9c0.3,0.1,0.6,0.1,0.9,0.1c0.6,0,1.3-0.1,1.9-0.4c1.1-0.4,2.1-1,2.9-1.8
			c1-0.9,1.8-2,2.4-3.2c0.8-1.5,1.4-3,1.7-4.6c0.5-2,0.7-4.1,0.8-6.2v-0.1c0-0.4,0.2-0.7,0.5-1c0.1-0.1,0.2-0.2,0.3-0.3
			c0,0,0.1-0.1,0.1-0.1c1.4-1.3,2.6-2.6,3.7-4.1c0,0,0.1-0.1,0.1-0.1l-0.1-2C26.2,46.8,26.1,46.9,26.1,46.9z M15.7,44.1
			c-0.3,0.8-0.6,1.7-0.8,2.5c-0.1,0.3-0.2,0.6-0.3,1c-0.2,0.9-0.5,1.7-0.9,2.5c-0.3,0.7-0.6,1.3-1.1,1.8c-0.3,0.4-0.7,0.7-1.1,0.9
			c-0.3,0.2-0.5,0.2-0.7,0.2c-0.4,0-0.7-0.2-0.9-0.5c-0.3-0.3-0.6-0.7-0.8-1.1c-0.6-1.2-0.9-2.5-0.9-4.2v-0.1c0-1.6,0.4-3.1,1.3-4.7
			c0.4-0.7,0.8-1.3,1.4-1.8c0.7-0.5,1.3-0.8,1.9-0.8c0.8,0,1.5,0.4,2.2,1.3c0.2,0.3,0.3,0.6,0.5,0.9v0c0.2,0.3,0.3,0.7,0.3,1
			C15.9,43.5,15.8,43.8,15.7,44.1z M15.9,63.5c-0.3,0.9-0.7,1.8-1.2,2.6c-0.4,0.6-1,1.2-1.6,1.6c-0.5,0.3-1,0.6-1.6,0.6
			c-0.1,0-0.2,0-0.3,0c-0.8,0-1.3-0.4-1.7-1.1c-0.2-0.3-0.2-0.7-0.3-1.1V66c0-0.8,0.1-1.5,0.5-2.3c0.4-1,1-1.8,1.7-2.6
			c1.4-1.4,2.9-2.6,4.7-3.6c0.1,0,0.1-0.1,0.2-0.1c0.1,0,0.2,0.1,0.2,0.3c0,0.4,0,0.8,0,1.2c0,0.2,0,0.3,0,0.5
			C16.4,60.8,16.3,62.2,15.9,63.5z"/>
		<path class="st4" d="M39.5,48.7c-0.1,0.3-0.3,0.5-0.4,0.7c-0.5,1-1.2,1.9-2,2.7c-0.7,0.7-1.6,1.2-2.5,1.5
			c-0.4,0.2-0.8,0.2-1.3,0.2c-0.3,0-0.5,0-0.7-0.1c-0.7-0.2-1.2-0.6-1.5-1.3c-0.2-0.4-0.3-0.9-0.4-1.4c0-0.4,0-0.8,0-1.3
			c0-0.3,0-0.6,0-0.9c0.1-1.3,0.2-2.7,0.4-4c0-0.2,0-0.5,0.1-0.7c0.2-1.3,0.3-2.6,0.4-4v-0.3c0-0.2,0-0.4,0-0.6c0-0.5-0.1-1-0.3-1.5
			c-0.4-0.8-0.9-1.2-1.6-1.3c-0.1,0-0.2,0-0.3,0c-0.6,0-1.1,0.3-1.6,0.9c-0.3,0.4-0.5,0.8-0.6,1.2c-0.2,0.6-0.4,1.2-0.4,1.8
			c-0.3,2-0.4,4-0.4,6c0,0.1,0,0.2,0,0.2l0.1,2c0,0,0,0.1,0,0.2c0.1,1.1,0.3,2.3,0.7,3.3c0.3,0.8,0.7,1.5,1.2,2.2
			c1.1,1.2,2.4,1.8,3.8,1.8c0.3,0,0.6,0,0.9,0c1.5-0.3,2.7-0.9,3.8-1.9c1.3-1.1,2.3-2.4,3.1-3.8l0.1-2.3
			C39.7,48.4,39.6,48.6,39.5,48.7z"/>
		<path class="st4" d="M85.2,41.1c0,0.2,0,0.3,0,0.5c0,0.6-0.1,1.2-0.1,1.7c-0.2,2.2-0.4,4.3-0.6,6.5c-0.1,0.9-0.3,1.8-0.5,2.7
			c-0.2,0.7-0.5,1.3-0.9,1.8c-0.4,0.5-0.8,0.9-1.4,1.1c-0.3,0.1-0.5,0.2-0.8,0.2c-0.6,0-1.1-0.3-1.5-1c-0.2-0.4-0.3-0.8-0.4-1.2
			C79,53,79,52.5,79,52c0-0.3,0-0.5,0-0.7c0.1-1.2,0.2-2.3,0.4-3.5c0.1-0.5,0.2-1,0.2-1.5c0.2-1.2,0.3-2.3,0.3-3.5v-0.5
			c0-0.9-0.2-1.8-0.5-2.6c-0.2-0.5-0.5-1-0.9-1.4c-0.4-0.3-0.8-0.5-1.2-0.5c-0.1,0-0.3,0-0.6,0.1c-0.3,0.1-0.6,0.4-0.9,0.9
			c-0.2,0.4-0.3,0.9-0.4,1.4c0,0.1,0,0.2-0.1,0.3c-0.2,0.9-0.3,1.8-0.4,2.7c-0.2,1.7-0.3,3.3-0.3,5c0,0.2,0,0.4,0,0.6l0.5,4.5
			c0.1,0.2,0.1,0.5,0.2,0.7c0.3,0.9,0.8,1.7,1.4,2.4c0.9,1,1.9,1.5,3.1,1.5h0.1c1.1,0,2.1-0.5,3-1.3c0.6-0.6,1.1-1.3,1.4-2.1
			c0.4-0.9,0.7-1.8,0.8-2.8l0.2-0.8c0-0.1,0-0.3,0.1-0.4l-0.3-9.7C85.2,40.9,85.2,41,85.2,41.1z"/>
		<path class="st4" d="M56.7,46.1h-0.5c-0.9,0-1.8,0.1-2.7,0.3c-2.8,0.5-5.5,1.4-8,2.6c-0.1,0-0.1,0.1-0.2,0.1
			c-0.2,0.1-0.3,0.2-0.5,0.2c0,0-0.1,0-0.1,0c-0.1,0-0.2-0.1-0.2-0.3v-0.8c0-1.3,0-2.5,0.2-3.8c0-0.3,0.2-0.4,0.4-0.5
			c1-0.4,2-0.9,2.8-1.6c0.1-0.1,0.2-0.1,0.3-0.2c0,0,0.1-0.1,0.1-0.1c2-1.5,3.5-3.4,4.5-5.7c0.4-0.9,0.7-1.8,0.8-2.8
			c0-0.2,0-0.3,0.1-0.5c-0.2,0-0.3-0.1-0.5-0.1c-0.5-0.2-0.8-0.7-0.7-1.2l0-0.1c0.1-0.4,0.5-0.7,0.9-0.7c0-0.1,0-0.1-0.1-0.2
			c-0.6-1.4-1.7-2.1-3.2-2.1h-0.3c-0.7,0.1-1.3,0.3-1.9,0.6c-0.6,0.4-1.1,0.8-1.6,1.2c-0.8,0.8-1.5,1.6-2,2.5
			c-0.9,1.4-1.6,2.9-2.2,4.5c-1.2,3.2-1.9,6.6-2.2,10c0,0.3,0,0.6,0,0.8l-0.1,2.3c0,1.5,0.2,3.1,0.4,4.6c0.3,1.9,1,3.7,1.9,5.4
			c0.6,1,1.3,1.9,2.1,2.6c0.8,0.7,1.7,1.3,2.8,1.6c0.5,0.1,1,0.2,1.5,0.2c1.9,0,3.3-1,4.3-2.9c0.2-0.5,0.4-1,0.5-1.6
			c0.1-0.5,0.2-1.1,0.2-1.6c0-1-0.2-1.9-0.5-2.8c-0.9-2.9-2.8-4.8-5.8-5.6h0c-0.1,0-0.1,0-0.2-0.1s-0.1-0.1-0.2-0.2
			c0,0,0.1,0,0.1-0.1c0.1,0,0.2,0,0.2-0.1c1.9-0.7,3.8-1.1,5.8-1.3c1-0.1,2-0.2,3-0.2c0.1,0,0.3,0,0.4,0c0.7,0,1.3-0.1,1.9-0.2
			l-0.1-2C57.6,46.2,57.1,46.1,56.7,46.1z M44.9,42.5L44.9,42.5c0-0.1,0-0.2,0-0.3c0.3-2.2,0.9-4.3,1.7-6.5c0.4-0.9,0.8-1.8,1.3-2.6
			c0.3-0.5,0.7-0.9,1.1-1.4c0.3-0.3,0.6-0.5,0.9-0.6c0.2-0.1,0.3-0.1,0.5-0.1c0.4,0,0.6,0.2,0.8,0.6c0.2,0.4,0.2,0.7,0.2,1.1v0.1
			c0,0.6-0.1,1.2-0.3,1.7c-0.2,0.7-0.5,1.5-0.8,2.1c-1.2,2.3-2.9,4.2-5,5.8c0,0,0,0-0.1,0l-0.2,0.2c0,0-0.1,0-0.1,0H45
			c-0.1,0-0.1,0-0.1-0.1C44.9,42.6,44.9,42.5,44.9,42.5z M49.9,53.4c1.1,1.2,1.6,2.6,1.6,4.2c0,0.8-0.2,1.5-0.5,2.2
			c-0.5,0.9-1,1.3-1.6,1.3c-0.4,0-0.9-0.3-1.5-0.7c-0.5-0.5-0.9-1-1.3-1.6c-0.6-1-1-2.1-1.4-3.3s-0.6-2.3-0.7-3.6v-0.1
			c0-0.1,0-0.2,0-0.2c0,0,0.2-0.1,0.3-0.1C47.2,51.6,48.8,52.2,49.9,53.4z"/>
		<path class="st4" d="M79.8,13l-0.1-0.1l-4.4-7c-0.6-1-1.8-1.4-2.8-1c-0.7,0.3-1.4,0.5-2,0.8c-8.7,3.6-15.2,8.8-19.9,15.9
			c-0.2,0.2-0.3,0.5-0.4,0.7c0,0,0,0,0,0c0,0,0,0,0,0c-0.1,0.3-0.4,0.5-1,1.9c-0.2,0.4-0.3,0.7-0.3,1.1c0,0.2,0,0.4,0.1,0.6
			c0.2,0.6,0.6,1,1.2,1.2c0.1,0,0.2,0.1,0.3,0.1c0.3,0,0.6-0.2,0.8-0.5c0,0,0-0.1,0.1-0.1c0,0,0.1-0.1,0.1-0.2
			c0.8-1.2,1.8-1.8,3.2-1.8c0.2,0,0.4,0,0.6,0.1c1,0.1,2,0.4,2.9,0.6l0.7,0.2c0.2,0,0.3,0.2,0.3,0.3v0l6,0.7h0c0.1,0,0.2,0,0.3,0
			h0.2c0.1,0,0.1,0,0.3,0h0.7c1.3,0,2.5-0.1,3.8-0.3c0.8-0.1,1.5-0.4,2.2-0.7c0.5-0.2,0.9-0.6,1.2-1c0.3-0.4,0.4-0.8,0.4-1.2v-0.1
			c0-0.1,0-0.1,0-0.2l0,0l0.5-4.2c0.1-1.6,0.2-3,0.7-4.5l0.3,0.3l0,0c0,0,0,0,0,0c-0.2,0.3-0.3,0.7-0.3,1.1c-0.3,1.9,1.1,3.7,3.1,4
			c1.9,0.3,3.7-1.1,4-3.1C82.5,15.1,81.4,13.5,79.8,13z M58,22.8c-0.4-0.1-0.8-0.3-1.2-0.4c0,0,0,0,0,0c1-0.3,2-0.6,3-0.8h0
			c0,0,0,0.1,0,0.1c-0.1,0.2-0.1,0.4-0.1,0.6c-0.1,0.2-0.1,0.5-0.2,0.7c0,0.2-0.1,0.2-0.2,0.2c0,0-0.1,0-0.2,0
			C58.8,23.1,58.4,23,58,22.8z M71.9,22.7c-0.2,0.1-0.3,0.2-0.5,0.3c-0.2,0.1-0.3,0.3-0.5,0.4c-1.4,0.9-2.9,1.4-4.5,1.4
			c-0.2,0-0.4,0-0.7,0c0,0-0.1,0-0.2,0c-0.2,0-0.3-0.1-0.3-0.3c0-0.3,0-0.6,0.1-0.9c0.1-0.7,0.1-1.4,0.1-2.1v-0.3
			c1.2,0,2.3,0.2,3.5,0.4c0.5,0.1,1,0.2,1.5,0.3c0.4,0.1,0.8,0.2,1.1,0.3c0.3,0.1,0.6,0.2,0.9,0.3C72.2,22.5,72.1,22.6,71.9,22.7z
			 M76.5,13.6c0,0-0.4-0.6-0.8-1c-0.2-0.2-0.4-0.4-0.6-0.3c-0.3,0-0.5,0.6-0.5,0.6c-1,2-1.1,4-1.2,6v0c0,0.7-0.1,1.3-0.2,2
			c0,0.1,0,0.2,0,0.4c-1.5-0.5-2.9-0.8-4.4-1.1c-1.2-0.2-2.3-0.3-3.5-0.3h-0.1c-1.6,0-3.2,0.1-4.9,0.4c0,0,0,0,0,0
			c-0.6,0.1-1.1,0.3-1.7,0.4c-1.4,0.3-2.8,0.7-4.1,1.3h0c-1,0.4-2.1,0.9-3.1,1.4c0.1-0.3,0.3-0.7,0.5-0.9c0.1-0.1,0.2-0.2,0.3-0.4
			c3.6-5.4,8.4-9.6,14.4-12.8c1.5-0.8,3-1.5,4.6-2.2c0.6-0.2,1.3-0.5,1.9-0.7c0.1,0,0.2,0,0.3,0c0.1,0,0.1,0,0.2,0
			c0.2,0,0.4,0.2,0.6,0.3c0,0,0.1,0.1,0.1,0.1l0.6,0.9l3.3,5.3l0,0.1h0l0.3,0.4l-1.6,0.5L76.5,13.6L76.5,13.6z M80.9,16.6
			c-0.1,1.2-1.2,2-2.4,1.8c-1.2-0.2-2-1.2-1.8-2.4c0-0.3,0.1-0.5,0.3-0.7c0.4-0.8,1.2-1.2,2.1-1.1c0.2,0,0.4,0.1,0.6,0.2
			C80.5,14.8,81,15.7,80.9,16.6z"/>
		<path class="st5" d="M80.9,16.6c-0.1,1.2-1.2,2-2.4,1.8c-1.2-0.2-2-1.2-1.8-2.4c0-0.3,0.1-0.5,0.3-0.7c0.4-0.8,1.2-1.2,2.1-1.1
			c0.2,0,0.4,0.1,0.6,0.2C80.5,14.8,81,15.7,80.9,16.6z"/>
		<path class="st2" d="M59.8,21.6C59.8,21.7,59.8,21.7,59.8,21.6c-0.1,0.3-0.1,0.5-0.1,0.7c0,0.2-0.1,0.5-0.2,0.7
			c0,0.1-0.1,0.2-0.2,0.2c0,0-0.1,0-0.2,0c-0.4-0.1-0.8-0.3-1.1-0.4c-0.4-0.1-0.8-0.3-1.2-0.4c0,0,0,0,0,0
			C57.9,22.1,58.8,21.8,59.8,21.6L59.8,21.6z"/>
		<path class="st2" d="M72.4,22.5c-0.2,0.1-0.3,0.1-0.5,0.3c-0.2,0.1-0.3,0.2-0.5,0.4c-0.2,0.1-0.4,0.3-0.5,0.4
			c-1.4,0.9-2.9,1.4-4.5,1.4c-0.2,0-0.4,0-0.7,0c-0.1,0-0.1,0-0.2,0c-0.2,0-0.3-0.1-0.3-0.3c0-0.3,0-0.6,0.1-0.9
			c0.1-0.7,0.1-1.4,0.1-2.1v-0.3c1.2,0,2.3,0.2,3.5,0.4c0.5,0.1,1,0.2,1.5,0.3c0.4,0.1,0.8,0.2,1.1,0.3
			C71.8,22.3,72.1,22.4,72.4,22.5z"/>
		<path class="st3" d="M78.3,13.3l-1.6,0.5l-0.2-0.2l0-0.1c0,0-0.4-0.6-0.8-1c-0.2-0.2-0.4-0.4-0.6-0.3c-0.3,0-0.5,0.6-0.5,0.6
			c-1,2-1.1,4-1.2,6v0c0,0.7-0.1,1.3-0.2,2c0,0.1,0,0.2,0,0.4c-1.5-0.5-2.9-0.9-4.4-1.1c-1.2-0.2-2.3-0.3-3.5-0.3h-0.1
			c-1.6-0.1-3.2,0.1-4.9,0.4c0,0,0,0,0,0c-0.6,0.1-1.1,0.3-1.7,0.4c-1.4,0.3-2.8,0.7-4.1,1.3h0c-1,0.4-2.1,0.9-3.1,1.4
			c0.1-0.3,0.3-0.7,0.5-0.9c0.1-0.1,0.2-0.2,0.3-0.4c3.6-5.4,8.4-9.6,14.4-12.8c1.5-0.8,3-1.5,4.6-2.2c0.6-0.2,1.3-0.5,1.9-0.7
			c0.1,0,0.2,0,0.3,0c0.1,0,0.1,0,0.2,0c0.2,0,0.4,0.2,0.6,0.3c0,0,0.1,0.1,0.1,0.1l0.6,0.9l3.3,5.3l0,0.1h0L78.3,13.3z"/>
		<path class="st4" d="M98.6,47.2c-0.1,0-0.1,0-0.2,0c-0.2,0-0.3,0.1-0.4,0.2c-0.1,0.1-0.3,0.3-0.3,0.5c-0.5,1-1.1,1.9-1.7,2.7
			c-1,1.5-2.3,2.7-3.7,3.8l-0.2,0.1c-0.2,0.2-0.4,0.3-0.6,0.3c-0.1-0.1-0.1-0.2-0.1-0.2c0-0.1,0-0.2,0-0.3v-0.1
			c-0.1-1.8-0.3-3.6-0.5-5.4c-0.1-0.7-0.1-1.4-0.2-2.1c-0.2-1.3-0.3-2.5-0.3-3.8c0-0.9,0.1-1.9,0.2-2.8l0-0.3c0-0.3,0-0.6-0.1-0.9
			c-0.1-0.7-0.6-1.2-1.2-1.5c-0.4-0.2-0.8-0.3-1.2-0.3c-0.3,0-0.7,0-1.1,0.2c-0.5,0.1-0.9,0.7-1.3,1.7c0,0.1-0.1,0.3-0.1,0.4
			c-0.1,0.4-0.2,0.9-0.2,1.3l0.3,9.7c0.1,0,0.2,0.1,0.2,0.2c0,0.1,0.1,0.2,0.1,0.3V51c0.3,1.2,0.5,2.3,0.7,3.5
			c0.1,0.5,0.2,1,0.3,1.4c0.1,0.3,0.1,0.6,0.2,0.9c0,0,0,0.1,0,0.1c0,0.2-0.1,0.3-0.3,0.4l-0.2,0.1c-0.1,0-0.2,0.1-0.3,0.1
			c-1.1,0.5-2.1,1.1-3,1.8c-1.1,0.7-2,1.6-2.8,2.6c-0.7,0.8-1.2,1.7-1.5,2.6c-0.3,0.7-0.4,1.4-0.4,2.1c0,0.3,0.1,0.7,0.1,1
			c0.5,2.1,1.8,3.2,3.9,3.4c0.9,0,1.8-0.2,2.5-0.6c0.9-0.5,1.8-1.1,2.4-1.9c0.8-0.9,1.4-1.9,1.9-3c0.8-1.7,1.3-3.4,1.5-5.2
			c0.2-1.1,0.3-2.1,0.3-3.2v0c0-0.3,0.1-0.5,0.4-0.6c0.1,0,0.1-0.1,0.2-0.1c0,0,0,0,0.1,0c2.5-1.6,4.5-3.7,6.1-6.3
			c0.2-0.2,0.3-0.5,0.4-0.7c0.2-0.5,0.3-1,0.4-1.5v0C98.9,47.5,98.8,47.3,98.6,47.2z M87.3,60.7c0,1.4-0.2,2.7-0.6,4
			c-0.3,0.9-0.7,1.7-1.2,2.4c-0.4,0.6-0.9,1.1-1.5,1.5C83.7,68.8,83.3,69,83,69c-0.3,0.1-0.5,0.1-0.7,0.1c-0.8,0-1.5-0.4-2-1.3
			c-0.2-0.4-0.4-0.9-0.4-1.4v-0.3c0-0.8,0.2-1.6,0.6-2.3c0.3-0.6,0.7-1,1.2-1.5c1.4-1.4,3-2.5,4.8-3.4c0.1,0,0.3-0.1,0.4-0.2
			c0.1,0,0.1,0,0.1,0c0.1,0,0.2,0.1,0.2,0.2c0,0.4,0.1,0.7,0.1,1.1C87.3,60.1,87.3,60.7,87.3,60.7z"/>
		<path class="st4" d="M74.7,48.8c-0.1,0.2-0.1,0.4-0.1,0.6l-0.2,1.1c-0.1,0.3-0.1,0.6-0.2,0.9c-0.4,2.3-1.3,4.4-2.7,6.2
			c-0.6,0.8-1.3,1.5-2.1,2c-0.6,0.4-1.3,0.7-2,0.9c-0.3,0-0.5,0.1-0.7,0.1c-0.8,0-1.4-0.3-1.9-1c-0.3-0.4-0.6-0.9-0.8-1.4
			c-0.3-0.9-0.5-1.8-0.6-2.7c-0.2-1.6-0.3-3.1-0.3-4.7c0-1.5,0-3.1,0.1-4.6l0-1.4c0-0.8,0.1-1.5,0.1-2.3l0.3-5.3
			c0.1-1.2,0.2-2.5,0.4-3.7c1.9-0.2,3.8-0.5,5.6-0.9c0.9-0.2,1.9-0.4,2.8-0.7c0.6-0.2,1.2-0.4,1.8-0.6c0.5-0.2,0.8-0.7,0.7-1.2
			c-0.1-0.5-0.6-0.8-1.1-0.8c-0.6,0.1-1.3,0.2-1.9,0.3C70.9,29.9,70,30,69,30.1c-1.6,0.2-3.1,0.3-4.7,0.5c0.2-1,0.3-2.1,0.5-3.1
			c0,0,0,0,0-0.1c0-0.3,0.1-0.5,0.1-0.6c0-0.1,0.1-0.2,0.2-0.2l-6-0.7v0.1c0,0.2,0,0.4,0,0.6c0,0.1,0,0.3,0,0.4c0,0.3,0,0.5-0.1,0.7
			c-0.1,0.5-0.1,1-0.2,1.5c0,0.6-0.1,1.1-0.1,1.7c-0.2,0-0.5,0-0.7,0c-1.5,0-3.1,0-4.6,0c0,0-0.1,0-0.1,0c-0.4,0-0.8,0.3-0.9,0.7
			l0,0.1c-0.1,0.5,0.2,1,0.7,1.2c0.2,0,0.3,0.1,0.5,0.1c1.5,0.4,2.9,0.6,4.4,0.7c0.2,0,0.4,0,0.6,0c-0.2,3.3-0.4,6.5-0.5,9.8
			c0,0.5,0,1,0,1.6c0,0.4,0,0.8,0,1.2l0.1,2c0.1,1.8,0.3,3.5,0.7,5.2c0.3,1.6,0.7,3,1.3,4.5c0.6,1.5,1.6,2.8,2.7,4
			c0.9,0.8,1.9,1.2,3,1.3H66c1,0,1.9-0.3,2.9-1c0.2-0.2,0.4-0.3,0.5-0.4c1-0.6,1.8-1.4,2.6-2.3c1-1.2,1.8-2.5,2.4-4
			c0.3-0.8,0.6-1.5,0.8-2.3L74.7,48.8z"/>
	</g>
	<g>
		<path class="st4" d="M14.8,72.4c4.5,4,9.7,7.1,15.2,9.2c5.5,2.1,11.4,3.2,17.2,3.2c5.9,0,11.7-1.1,17.2-3.2
			c5.5-2.1,10.6-5.3,15.2-9.2l0.7,0.7c-4.1,4.6-9.2,8.4-14.9,10.9c-5.7,2.6-12,3.8-18.2,3.9c-6.3,0-12.5-1.3-18.2-3.9
			c-5.7-2.5-10.8-6.3-14.9-10.9L14.8,72.4z"/>
	</g>
</g>
</svg>
