<svg width="80" height="66" viewBox="0 0 80 66" fill="none" xmlns="http://www.w3.org/2000/svg">
<path d="M13.8821 33.7645C13.8536 33.85 13.8109 33.9355 13.7966 34.0068C13.7966 34.0638 13.7966 34.0923 13.7824 34.135C13.5686 34.8192 13.3263 35.489 13.0555 36.1589C12.8274 36.7005 12.5139 37.2136 12.1433 37.6839C11.3737 38.6104 10.49 39.0522 9.52083 39.0522C8.97924 39.0522 8.42338 38.9097 7.81052 38.6389C6.99812 38.197 6.3425 37.5984 5.88642 36.8145C5.31631 35.8454 4.9885 34.7764 4.93149 33.6504C4.91724 33.4937 4.91724 33.3369 4.91724 33.1801C4.91724 32.1397 5.13103 31.1277 5.54435 30.1586C6.11446 28.7903 6.96961 27.6358 8.12408 26.6952C8.73694 26.1963 9.40681 25.8258 10.1622 25.5835C10.5613 25.4552 10.9746 25.3982 11.4022 25.3982H11.502C12.6992 25.4124 13.6541 25.8828 14.3952 26.8377C14.4237 26.8662 14.4665 26.909 14.4807 26.966C14.552 27.0515 14.6233 27.1227 14.666 27.2083C14.6803 27.2225 14.6803 27.2225 14.6945 27.2225H14.723C14.7801 27.2083 14.7943 27.1655 14.8086 27.137C14.8086 27.1227 14.8228 27.08 14.8228 27.0657L14.8086 26.9945C14.8086 26.9802 14.8086 26.9802 14.8228 26.966C14.8513 26.5526 14.9368 26.1536 15.1079 25.7687C15.1221 25.7402 15.1364 25.6975 15.1649 25.6405C15.2932 25.2699 15.5354 25.0276 15.8918 24.8993C16.2338 24.7568 16.6186 24.6855 17.0035 24.6855H17.1745C17.6163 24.6998 17.9014 24.9136 18.1009 25.3127C18.2149 25.5692 18.2862 25.84 18.2862 26.1108C18.2862 26.1821 18.2719 26.2391 18.2719 26.2961L18.2434 26.9517C18.2292 27.3223 18.1864 27.6643 18.1579 28.0064C18.0867 28.9613 18.0582 29.902 18.0582 30.8427C18.0582 31.4128 18.0724 31.9686 18.0867 32.553C18.1009 33.1231 18.1437 33.679 18.1722 34.2348L18.2007 34.9332C18.2007 35.0615 18.2007 35.1755 18.2149 35.3038V35.318C18.2149 35.3465 18.2149 35.3893 18.2292 35.4178C18.2434 35.4463 18.2577 35.489 18.3005 35.5033C18.3147 35.5175 18.3575 35.5175 18.3717 35.5175C18.386 35.5175 18.386 35.5175 18.4002 35.5033C18.4287 35.489 18.4715 35.4748 18.5 35.432C18.6425 35.3038 18.785 35.204 18.8991 35.09C19.5974 34.4343 20.2246 33.6932 20.7804 32.9093C20.9942 32.61 21.1937 32.3392 21.4218 32.0542C21.5358 31.8831 21.7211 31.7548 21.9491 31.6693C21.9776 31.6551 22.0204 31.6551 22.0346 31.6551C22.0631 31.6551 22.1059 31.6693 22.1344 31.6836C22.1914 31.7121 22.2199 31.7691 22.2342 31.8546C22.2342 32.0827 22.1772 32.3107 22.0774 32.496C21.9206 32.8238 21.7068 33.1516 21.4788 33.4509C20.6949 34.4771 19.8255 35.432 18.8706 36.3157C18.8421 36.3299 18.7993 36.3727 18.785 36.387C18.7138 36.4582 18.6425 36.5295 18.557 36.6007C18.329 36.7718 18.2149 36.9856 18.2149 37.2849V37.3134C18.2007 38.7956 18.0011 40.2352 17.6733 41.6747C17.4168 42.8006 16.9892 43.8838 16.4619 44.91C16.0343 45.7509 15.4642 46.4921 14.7943 47.1477C14.1957 47.7178 13.5258 48.1596 12.7419 48.4589C12.3143 48.63 11.8725 48.7155 11.4164 48.7155C11.2312 48.7155 11.0174 48.7012 10.8036 48.6585C9.63486 48.4304 8.90797 47.7748 8.60867 46.6346C8.5374 46.321 8.5089 46.0075 8.5089 45.6939C8.5089 45.3091 8.56591 44.9528 8.66568 44.568C8.85096 43.8696 9.13601 43.2282 9.53509 42.6153C10.0767 41.803 10.7038 41.0903 11.4307 40.4632C12.2146 39.7791 13.0412 39.1805 13.9391 38.6389C14.0247 38.5819 14.0959 38.5391 14.1529 38.4963C14.267 38.4251 14.3382 38.3538 14.3952 38.3111C14.4522 38.254 14.4665 38.1828 14.4665 38.0973C14.4665 38.0118 14.4522 37.855 14.438 37.6554C14.438 37.6412 14.438 37.5984 14.4237 37.5842V37.4844C14.2385 36.2444 14.1244 35.0187 14.0959 33.7787C14.0959 33.7217 14.0959 33.679 14.0817 33.6077C14.0817 33.5507 14.0817 33.5079 14.0674 33.4509C13.9677 33.5792 13.9249 33.6647 13.8821 33.7645ZM8.90797 32.3677C8.90797 33.5222 9.13601 34.4914 9.56359 35.3038C9.70612 35.6031 9.87715 35.8596 10.1052 36.0876C10.2905 36.3157 10.5185 36.4155 10.7608 36.4155C10.9176 36.4155 11.0886 36.3584 11.2882 36.2587C11.5875 36.1019 11.844 35.8739 12.0578 35.6031C12.3714 35.2182 12.6137 34.8049 12.8132 34.3346C13.0555 33.7645 13.2693 33.1801 13.4261 32.5815C13.4973 32.3535 13.5686 32.1254 13.6113 31.8974C13.7681 31.2845 13.9534 30.7002 14.1672 30.1158C14.2527 29.902 14.3097 29.7025 14.3097 29.4887C14.3097 29.2464 14.2385 29.0041 14.0959 28.7618V28.7475C13.9962 28.5338 13.8679 28.3342 13.7539 28.1347C13.2693 27.5076 12.7562 27.194 12.1861 27.194C11.7442 27.194 11.3024 27.3793 10.8178 27.7499C10.4045 28.0919 10.0767 28.5195 9.80589 28.9898C9.20728 30.0873 8.92223 31.1847 8.92223 32.2822V32.3677H8.90797ZM14.666 40.563C14.6518 40.2779 14.6518 40.0071 14.6375 39.7078C14.6233 39.5653 14.5663 39.494 14.495 39.494C14.4665 39.494 14.4095 39.5083 14.3525 39.551C13.141 40.2494 12.0436 41.1046 11.0601 42.1023C10.5613 42.6581 10.1765 43.2852 9.87715 43.9694C9.66336 44.4682 9.54934 45.0098 9.54934 45.5514V45.7082C9.56359 45.9647 9.6206 46.2355 9.73462 46.4493C9.99117 46.9481 10.376 47.219 10.9176 47.219C10.9889 47.219 11.0601 47.2189 11.1456 47.2047C11.5447 47.1477 11.9153 46.9909 12.2431 46.7629C12.6992 46.4493 13.084 46.0645 13.369 45.6084C13.7539 45.0383 14.0532 44.4254 14.2385 43.7841C14.5235 42.8434 14.6518 41.8885 14.6803 40.8908C14.666 40.791 14.666 40.677 14.666 40.563Z" fill="white"/>
<path d="M25.042 30.3012C25.0277 30.4579 25.0135 30.6147 24.985 30.7715C24.8567 31.6979 24.7712 32.6386 24.7284 33.5793C24.7142 33.8073 24.7142 34.0354 24.7142 34.2349C24.7142 34.5342 24.7142 34.8335 24.7427 35.1186C24.7712 35.4464 24.8567 35.7742 24.985 36.0877C25.1988 36.5581 25.5408 36.8574 26.0397 36.9714C26.2107 36.9999 26.3817 37.0284 26.567 37.0284C26.8806 37.0284 27.1656 36.9714 27.4507 36.8716C28.1348 36.6436 28.7192 36.3015 29.2322 35.7884C29.8024 35.2326 30.2727 34.5912 30.6433 33.8786C30.7288 33.7218 30.8143 33.5508 30.8998 33.3797C31.0138 33.1232 31.1564 32.8809 31.2989 32.6101C31.3131 32.5816 31.3274 32.5388 31.3559 32.4818C31.3844 32.4106 31.4414 32.3393 31.4984 32.268C31.5554 32.211 31.6124 32.1825 31.7407 32.1825C31.7977 32.268 31.8262 32.3678 31.8262 32.4676C31.8262 32.5673 31.8262 32.6814 31.812 32.7669C31.755 33.0234 31.6837 33.2657 31.5982 33.508C30.9853 34.9903 30.0874 36.2588 28.8902 37.3135C28.1205 38.0118 27.2226 38.4394 26.1964 38.639C25.9826 38.6675 25.7974 38.6675 25.5836 38.6675C24.5431 38.6675 23.631 38.2541 22.8898 37.399C22.505 36.9286 22.2342 36.4013 22.0347 35.8312C21.7781 35.09 21.6213 34.3062 21.5643 33.4938C21.5358 32.9379 21.5073 32.3678 21.5073 31.8119C21.5073 30.4009 21.6071 28.9899 21.8209 27.6074C21.8779 27.1656 21.9777 26.738 22.1344 26.3389C22.2342 26.0396 22.391 25.7688 22.5905 25.498C22.9611 25.099 23.3317 24.8852 23.7592 24.8852C23.8305 24.8852 23.8875 24.8852 23.9445 24.8994C24.4434 24.9707 24.8282 25.2842 25.099 25.8401C25.213 26.1679 25.2843 26.5385 25.3128 26.8948C25.327 27.0231 25.327 27.1513 25.327 27.2939V27.4791C25.27 28.4341 25.156 29.3747 25.042 30.3012ZM22.4765 22.1487C22.4765 21.8066 22.5763 21.4645 22.7901 21.151C23.0324 20.7519 23.3602 20.5524 23.7877 20.5524H23.8875C24.3864 20.6094 24.7569 20.8659 24.9707 21.322C25.1275 21.7211 25.1988 22.1344 25.1988 22.562C25.1988 22.6903 25.1988 22.79 25.1845 22.8898C25.1702 23.0181 25.156 23.1321 25.099 23.2319C24.8852 23.7165 24.6429 23.973 24.3864 24.03C24.1298 24.087 23.9588 24.1013 23.8875 24.1013C23.5027 24.1013 23.1891 23.9445 22.8898 23.6167C22.7045 23.3744 22.5763 23.0893 22.5478 22.8043C22.5335 22.7045 22.5193 22.5905 22.5193 22.4765C22.5193 22.4195 22.5193 22.3767 22.505 22.3054V22.1487H22.4765Z" fill="white"/>
<path d="M36.1163 34.5199C36.1733 34.5342 36.2018 34.5484 36.2588 34.5769H36.2731C38.3397 35.147 39.6795 36.4725 40.3208 38.5106C40.5346 39.1663 40.6487 39.8361 40.6487 40.506C40.6487 40.8908 40.6202 41.2472 40.5489 41.632C40.4776 42.031 40.3636 42.4016 40.2068 42.7579C39.5084 44.0977 38.4965 44.7818 37.1853 44.7818C36.8575 44.7818 36.5296 44.7533 36.1591 44.6535C35.4037 44.4397 34.7623 44.0834 34.1922 43.5561C33.5936 43.0145 33.109 42.3874 32.7099 41.689C32.0543 40.4918 31.5982 39.2233 31.3702 37.8835C31.1564 36.7006 31.0566 35.5176 31.0566 34.3204C31.0566 33.679 31.0851 33.0519 31.1422 32.4105C31.3274 29.9876 31.8548 27.6501 32.6957 25.3697C33.0948 24.2723 33.6221 23.2176 34.2207 22.2199C34.6198 21.5785 35.1044 20.9799 35.646 20.4383C35.9738 20.1105 36.3586 19.8112 36.7719 19.5689C37.1853 19.3266 37.6414 19.1841 38.1259 19.1271H38.297C39.3659 19.1271 40.0928 19.6117 40.5204 20.6236C40.6914 21.0797 40.7769 21.55 40.7769 22.0204C40.7769 22.2056 40.7627 22.4194 40.7199 22.6332C40.6344 23.3316 40.4349 23.9872 40.1498 24.6286C39.4372 26.2249 38.3967 27.5504 36.9857 28.6193C36.9715 28.6336 36.9287 28.6763 36.9002 28.6906C36.829 28.7476 36.7577 28.7761 36.7149 28.8331C36.1448 29.332 35.5035 29.7168 34.7623 29.9876C34.5913 30.0446 34.5058 30.1444 34.4773 30.3154C34.3775 31.1991 34.3347 32.097 34.3347 32.9949V33.5365C34.349 33.6648 34.3918 33.7218 34.4773 33.7218C34.4915 33.7218 34.5343 33.7218 34.5628 33.7075C34.6626 33.6505 34.7766 33.6077 34.8906 33.5507C34.9476 33.5365 34.9904 33.4937 35.0474 33.4795C36.8575 32.6243 38.7531 32.0114 40.7199 31.6694C41.3613 31.5411 42.0027 31.4984 42.6583 31.4984H42.9861C43.4422 31.5126 43.8698 31.5981 44.3116 31.7834C44.5681 31.8832 44.7677 32.04 44.9244 32.2537C44.9815 32.325 44.9957 32.3963 44.9957 32.4675C44.9957 32.5531 44.9672 32.6243 44.8959 32.6956C44.7107 32.8809 44.4826 33.0091 44.2118 33.0661C43.713 33.1944 43.1999 33.2514 42.6868 33.2514C42.6013 33.2657 42.5158 33.2657 42.4302 33.2657C41.7176 33.2799 41.0192 33.3227 40.3066 33.394C38.9098 33.5365 37.5558 33.85 36.2303 34.3204C36.1733 34.3346 36.1306 34.3489 36.0736 34.3774C36.0593 34.3916 36.0166 34.4059 35.988 34.4344C36.0308 34.4487 36.0736 34.5057 36.1163 34.5199ZM38.2257 36.6578C37.4561 35.8026 36.3159 35.3751 34.7623 35.3751C34.634 35.3893 34.577 35.4036 34.5343 35.4463C34.52 35.4748 34.5058 35.5318 34.5058 35.6031V35.6886C34.5913 36.5438 34.7623 37.3704 34.9904 38.1971C35.2184 39.0095 35.532 39.7791 35.9453 40.506C36.1876 40.9193 36.4869 41.2899 36.8432 41.6177C37.228 41.9313 37.5701 42.1023 37.8836 42.1023C38.3255 42.1023 38.696 41.7888 39.0096 41.1616C39.2376 40.6628 39.3517 40.1354 39.3517 39.5938C39.3517 38.5107 38.9811 37.513 38.2257 36.6578ZM39.3517 22.0774C39.3517 21.8208 39.2947 21.5785 39.1949 21.3077C39.0524 21.0084 38.8671 20.8516 38.5963 20.8516C38.4965 20.8516 38.3825 20.8659 38.2685 20.9229C38.0262 21.0227 37.8124 21.1652 37.6271 21.3647C37.3278 21.664 37.0712 21.9776 36.8432 22.3197C36.4726 22.9183 36.1591 23.5311 35.9025 24.1868C35.3324 25.669 34.9334 27.1798 34.6911 28.7333C34.6911 28.7904 34.6911 28.8616 34.6768 28.9044V28.9329C34.6768 28.9614 34.6768 29.0041 34.6768 29.0327C34.6768 29.0612 34.6911 29.0897 34.7481 29.1039H34.8193C34.8478 29.0897 34.8906 29.0897 34.9048 29.0754L35.0474 28.9756C35.0616 28.9614 35.0759 28.9614 35.1044 28.9471C36.5867 27.8497 37.7554 26.4814 38.5963 24.8566C38.8528 24.3863 39.0524 23.8875 39.1949 23.3601C39.3089 22.9895 39.3659 22.5905 39.3659 22.1771V22.0774H39.3517Z" fill="white"/>
<path d="M67.928 37.4417L68.0278 37.3704C69.054 36.6293 69.9234 35.7314 70.636 34.6909C71.0779 34.0781 71.4769 33.4367 71.819 32.7668C71.8903 32.6386 71.9758 32.5245 72.0613 32.4248C72.1468 32.3393 72.2323 32.2822 72.3464 32.2822C72.4034 32.2822 72.4461 32.2965 72.5031 32.3108C72.6457 32.3678 72.7169 32.4818 72.7169 32.6528V32.6813C72.6599 33.0519 72.5744 33.394 72.4319 33.7218C72.3606 33.907 72.2751 34.0923 72.1753 34.2491C71.0779 36.0592 69.6526 37.5415 67.8853 38.6674C67.871 38.6674 67.871 38.6674 67.8425 38.6817C67.7855 38.6959 67.757 38.7387 67.7285 38.7529C67.5432 38.8385 67.4434 38.981 67.4434 39.1948V39.2233C67.4149 39.9929 67.3437 40.7341 67.2297 41.4894C67.0586 42.7579 66.7023 43.9837 66.1607 45.1381C65.8186 45.9078 65.3626 46.6061 64.8067 47.2475C64.3364 47.8176 63.7663 48.2737 63.0964 48.6158C62.5405 48.9151 61.9562 49.0576 61.3006 49.0576C59.7898 48.9293 58.8634 48.1312 58.5213 46.6632C58.4928 46.4209 58.45 46.1786 58.45 45.9363C58.45 45.4517 58.5356 44.9671 58.7066 44.4968C58.9346 43.8126 59.2767 43.1855 59.747 42.6297C60.3171 41.9313 60.987 41.3184 61.7281 40.8196C62.4123 40.3492 63.0964 39.9502 63.8518 39.5796C63.9088 39.5653 63.9801 39.5226 64.0228 39.4941L64.1653 39.4228C64.2651 39.3516 64.3364 39.266 64.3364 39.1663C64.3364 39.1378 64.3221 39.1093 64.3221 39.0808C64.2651 38.8527 64.2366 38.6389 64.1939 38.4394C64.1368 38.1116 64.0798 37.7553 64.0086 37.4274C63.8518 36.615 63.6808 35.7884 63.5097 34.976V34.919C63.4955 34.862 63.4812 34.7907 63.4527 34.748C63.4242 34.7052 63.3814 34.6482 63.3102 34.6054C63.2959 34.6909 63.2817 34.7765 63.2532 34.862L63.1534 35.4178C63.0394 36.1162 62.8399 36.7718 62.5691 37.4132C62.341 37.969 62.0132 38.4536 61.5714 38.8955C60.9157 39.5083 60.2031 39.8219 59.4335 39.8219H59.348C58.5498 39.8076 57.8229 39.4513 57.1673 38.7814C56.7112 38.2969 56.3834 37.741 56.1696 37.0996C55.8561 36.2302 55.685 35.3466 55.6423 34.4201C55.628 33.9356 55.6138 33.451 55.6138 32.9521C55.6138 31.7549 55.685 30.5862 55.8276 29.4032C55.8988 28.7618 55.9843 28.1347 56.0841 27.5076C56.0984 27.4221 56.0984 27.3508 56.1126 27.2796C56.1696 26.9375 56.2551 26.5954 56.3977 26.3104C56.6115 25.9113 56.811 25.6975 57.0248 25.6548C57.2386 25.612 57.3668 25.5835 57.4381 25.5835C57.7374 25.5835 58.0082 25.6833 58.2933 25.9113C58.5926 26.1964 58.8206 26.5242 58.9489 26.909C59.1769 27.5219 59.2909 28.1205 59.3195 28.7761V29.1609C59.3195 30.0018 59.2624 30.8142 59.1342 31.6266C59.0772 31.9972 59.0344 32.3393 58.9774 32.7098C58.8349 33.5222 58.7351 34.3631 58.6638 35.1755C58.6496 35.3466 58.6496 35.5033 58.6496 35.6744C58.6496 36.0022 58.6638 36.33 58.7208 36.6721C58.7493 36.9714 58.8349 37.2707 58.9774 37.5272C59.2339 37.9976 59.5903 38.2398 60.0178 38.2398C60.1889 38.2398 60.3884 38.2113 60.5737 38.1401C60.9728 37.969 61.2863 37.6982 61.5429 37.3562C61.8279 36.9571 62.0275 36.5438 62.1557 36.0734C62.341 35.4321 62.4835 34.7907 62.5405 34.1493C62.6973 32.6243 62.8398 31.085 62.9539 29.5743C62.9824 29.1752 63.0109 28.7618 63.0251 28.3628C63.0251 28.2345 63.0251 28.1347 63.0394 28.035C63.0536 27.6501 63.1107 27.2653 63.1962 26.909C63.2104 26.8235 63.2532 26.7237 63.2817 26.624C63.5667 25.9113 63.8803 25.5123 64.2081 25.4267C64.5502 25.3412 64.821 25.2985 65.0063 25.2985C65.3056 25.2985 65.5764 25.3555 65.8757 25.4695C66.3603 25.6405 66.6596 25.9968 66.7451 26.5099C66.8021 26.7237 66.8306 26.9233 66.8306 27.1371L66.8163 27.3508C66.7451 28.0065 66.7166 28.6906 66.7166 29.3462C66.7166 30.2299 66.7878 31.0993 66.8876 31.9972C66.9446 32.496 66.9874 32.9949 67.0444 33.4937C67.2012 34.748 67.3009 36.0164 67.3722 37.2849V37.3562C67.3722 37.4132 67.3722 37.4845 67.3864 37.5272C67.4007 37.5842 67.4292 37.627 67.472 37.684C67.6715 37.627 67.7998 37.5557 67.928 37.4417ZM64.5644 41.3612C64.5502 41.1046 64.5359 40.8338 64.5074 40.5773C64.4932 40.4918 64.4361 40.4348 64.3649 40.4348C64.3506 40.4348 64.3364 40.449 64.2936 40.449C64.1939 40.4775 64.1083 40.5203 64.0086 40.5488C62.7401 41.1189 61.6284 41.917 60.6449 42.9147C60.3171 43.2425 60.0321 43.5988 59.7898 43.9694C59.4762 44.4682 59.3337 45.0241 59.3337 45.6085V45.8507C59.348 46.1928 59.4477 46.5349 59.6188 46.8199C59.9608 47.4185 60.4312 47.7036 61.0298 47.7036C61.1865 47.7036 61.3576 47.6751 61.5286 47.6323C61.7566 47.5753 61.9847 47.4756 62.1842 47.3473C62.6261 47.0907 62.9681 46.7344 63.2674 46.3211C63.638 45.7937 63.9231 45.2379 64.1226 44.6393C64.4076 43.7129 64.5359 42.7579 64.5359 41.803V41.3612H64.5644Z" fill="white"/>
<path d="M54.0887 14.8513C53.9746 14.9083 53.8464 14.9511 53.7323 15.0366C53.6041 15.1221 53.49 15.1934 53.3618 15.2789C53.2335 15.3644 53.1195 15.4642 52.9912 15.5639C51.9935 16.2053 50.9388 16.5188 49.7844 16.5188C49.6276 16.5188 49.4708 16.5188 49.2998 16.5046C49.2713 16.5046 49.2285 16.5046 49.1857 16.4903C49.0717 16.4761 49.0147 16.4048 49.0147 16.3051C49.029 16.077 49.0432 15.8632 49.0717 15.6494C49.143 15.1648 49.1572 14.6803 49.1572 14.1814C49.1572 14.0959 49.1572 14.0389 49.1572 13.9534C47.846 13.9106 46.5348 14.0104 45.2235 14.2812C45.2235 14.2954 45.2093 14.3239 45.2093 14.3382C45.1808 14.4807 45.138 14.6232 45.1237 14.78C45.0952 14.9368 45.0525 15.1078 45.024 15.2789C45.0097 15.3786 44.9527 15.4214 44.8815 15.4214C44.8529 15.4214 44.8102 15.4214 44.7674 15.4071C44.5109 15.3216 44.2258 15.2219 43.9693 15.1078C43.6985 15.0081 43.4277 14.9226 43.1569 14.8228C41.7601 15.2789 40.3634 15.8775 38.9666 16.6756L38.596 16.8752L37.8977 16.0343L38.0259 15.7492C38.0687 15.6352 38.1115 15.5212 38.1685 15.4071C37.9832 15.6067 37.8407 15.8347 37.7124 16.0913C37.5984 16.3336 37.5271 16.5901 37.5271 16.8752C37.5271 17.0177 37.5414 17.1602 37.5841 17.317C37.7124 17.7588 37.9832 18.0439 38.425 18.1722C38.4963 18.1864 38.5675 18.2007 38.6388 18.2007C38.8668 18.2007 39.0521 18.0724 39.1947 17.8586C39.2089 17.8443 39.2374 17.8016 39.2517 17.7731C39.2659 17.7446 39.3087 17.7018 39.3229 17.6448C39.8645 16.7896 40.6057 16.3621 41.5463 16.3621C41.7031 16.3621 41.8456 16.3763 42.0024 16.3906C42.7008 16.4903 43.3707 16.6471 44.0548 16.8467L44.5822 16.9892C44.7247 17.0177 44.7674 17.089 44.7674 17.2172V17.2885C44.7532 17.431 44.7532 17.5735 44.7389 17.6876C44.7389 17.7731 44.7389 17.8586 44.7247 17.9441C44.7104 18.1151 44.6962 18.2862 44.6677 18.4715C44.6107 18.842 44.5822 19.1841 44.5679 19.5547C44.3114 22.9325 44.1403 26.3104 44.012 29.7025C43.9978 30.0731 43.9978 30.4294 43.9978 30.8142C43.9978 32.8096 44.1831 34.805 44.5536 36.7576C44.7389 37.855 45.0382 38.8955 45.4516 39.9074C45.9076 40.9621 46.549 41.9028 47.3899 42.6867C48.017 43.2568 48.7154 43.5561 49.4708 43.5846H49.6276C50.326 43.5846 50.9958 43.3565 51.6515 42.8862C51.7797 42.7864 51.908 42.7009 52.0363 42.6012C52.7347 42.1593 53.3475 41.632 53.8606 40.9764C54.559 40.1212 55.1148 39.1805 55.5424 38.1543C56.0128 37.0284 56.3548 35.8739 56.6256 34.6909C56.6969 34.3204 56.7396 33.9498 56.7966 33.565C56.8109 33.4795 56.8109 33.4082 56.8109 33.3227C56.8109 33.0804 56.7539 32.8239 56.6399 32.5816C56.5686 32.4533 56.4831 32.3963 56.3833 32.3963C56.3121 32.3963 56.2408 32.4533 56.1553 32.5245C55.9985 32.6813 55.8987 32.8666 55.8417 33.0804C55.7562 33.3369 55.6992 33.5792 55.6564 33.85L55.5139 34.6482C55.4854 34.8335 55.4427 35.0473 55.4141 35.2611C55.1576 36.8859 54.5162 38.3396 53.5043 39.6509C53.0625 40.2067 52.5779 40.6913 52.0078 41.0904C51.5802 41.3897 51.1099 41.5892 50.5968 41.7175C50.4257 41.746 50.2689 41.7745 50.1122 41.7745C49.5706 41.7745 49.1145 41.5465 48.7582 41.0619C48.5301 40.7626 48.3448 40.4348 48.2166 40.0642C47.9885 39.4371 47.846 38.7957 47.7605 38.1543C47.618 37.0569 47.5467 35.9594 47.5324 34.862C47.5324 33.7788 47.5467 32.7098 47.5895 31.6409L47.618 30.6289C47.6322 30.0873 47.675 29.5458 47.7035 29.0042L47.9173 25.2415C48.0028 23.8875 48.1596 22.5477 48.3876 21.208C48.5444 20.2673 48.7012 19.3266 48.8152 18.3717C48.8152 18.3574 48.8152 18.3432 48.8294 18.3147C48.8437 18.1294 48.8864 17.9726 48.9007 17.8728C48.915 17.7731 48.972 17.7446 49.0432 17.7303C49.1002 17.7161 49.1572 17.7161 49.257 17.7161H49.4138C49.4708 17.7161 49.5136 17.7161 49.5848 17.7303H50.0552C50.9531 17.7303 51.851 17.6591 52.7347 17.488C53.2763 17.4025 53.7751 17.2315 54.2597 17.0034C54.6017 16.8467 54.9011 16.6044 55.1291 16.3051C55.3144 16.0485 55.4284 15.7635 55.4284 15.4642V15.4071C55.4284 15.3501 55.3999 15.3074 55.3856 15.2504L54.8583 15.0651C54.559 14.9796 54.3167 14.9226 54.0887 14.8513Z" fill="white"/>
<path d="M59.2624 8.0955L56.1554 3.13559C55.742 2.46572 54.9011 2.18066 54.16 2.43721C53.6469 2.6225 53.1908 2.77927 52.7347 2.96456C46.5919 5.47302 42.0025 9.1502 38.7101 14.1956C38.4821 14.5377 38.3253 14.9225 38.1971 15.2788C38.1828 15.3216 38.1685 15.3501 38.1543 15.3929C38.3253 15.2076 38.5249 15.0365 38.7529 14.894C39.0665 14.7087 39.3943 14.5662 39.7221 14.4664C42.8862 9.74881 47.2617 6.27117 53.1053 3.87673C53.5471 3.7057 53.989 3.54892 54.4878 3.36363C54.5876 3.32087 54.7016 3.30662 54.8156 3.32087C55.0152 3.34938 55.2147 3.47765 55.3287 3.64869L58.0795 8.03849L58.2933 8.38056L57.1388 8.76538L56.9678 8.58009C56.9678 8.58009 56.3406 7.56816 55.9558 7.62517C55.7848 7.65367 55.5853 8.02424 55.5853 8.02424C54.8584 9.421 54.7871 10.8605 54.7158 12.243C54.6873 12.7989 54.6588 13.369 54.5733 13.9391C52.7205 13.312 50.8676 12.9842 49.0291 12.9271C49.0861 13.0839 49.1288 13.2265 49.1431 13.4117C49.1573 13.5828 49.1573 13.7538 49.1573 13.9391C50.7964 13.9961 52.4354 14.3097 54.0887 14.8513C54.1742 14.8085 54.2598 14.7372 54.3595 14.7087C54.4593 14.6945 54.5448 14.6802 54.6446 14.6802C54.8014 14.6802 54.9439 14.7087 55.0579 14.8085C55.2147 14.9083 55.286 15.065 55.3287 15.2788L55.3572 15.2931L55.457 14.723C55.5995 13.9106 55.6423 13.1124 55.685 12.3428C55.742 11.2453 55.799 10.2049 56.1554 9.20721L56.3406 9.421L56.8252 9.9626L57.2671 9.82007C57.5379 9.29273 58.1365 8.96491 58.7636 9.05043C58.9204 9.06468 59.0629 9.10744 59.1912 9.1787L59.7898 8.97917L59.2624 8.0955Z" fill="white"/>
<path d="M41.418 14.3809C41.9311 14.4379 42.4157 14.5519 42.9145 14.7229C42.9858 14.7514 43.0713 14.7799 43.1425 14.8085C43.8409 14.5804 44.525 14.4094 45.2234 14.2669C45.2947 13.8963 45.3945 13.54 45.537 13.2122C44.1545 13.4402 42.7862 13.825 41.418 14.3809Z" fill="white"/>
<path d="M54.6303 14.666C54.5448 14.666 54.4593 14.6803 54.3453 14.6945C54.2455 14.723 54.16 14.7943 54.0745 14.837C54.3168 14.9083 54.5448 14.9653 54.7871 15.0651L55.3144 15.2504C55.2717 15.0508 55.1862 14.8798 55.0436 14.78C54.9296 14.7088 54.7871 14.666 54.6303 14.666Z" fill="white"/>
<path d="M37.8833 16.0199L38.5817 16.8608L38.9522 16.6613C40.3633 15.8631 41.76 15.2503 43.1425 14.8084C43.0713 14.7799 42.9857 14.7514 42.9145 14.7229C42.4299 14.5519 41.931 14.4379 41.418 14.3809C40.6768 14.6802 39.9499 15.008 39.2088 15.3928C39.3086 15.1505 39.4083 14.9367 39.5366 14.7229C39.5936 14.6374 39.6649 14.5519 39.7219 14.4664C39.3798 14.5661 39.0663 14.7087 38.7527 14.894C38.5247 15.0365 38.3251 15.2075 38.1541 15.3928C38.1113 15.5068 38.0543 15.6208 38.0116 15.7349L37.8833 16.0199Z" fill="white"/>
<path d="M45.5228 13.1979C45.3945 13.54 45.2805 13.8963 45.2092 14.2526C46.5205 13.996 47.8317 13.882 49.143 13.9248C49.143 13.7537 49.143 13.5685 49.1287 13.3974C49.1144 13.2121 49.0574 13.0696 49.0147 12.9128C47.8602 12.9128 46.6915 12.9984 45.5228 13.1979Z" fill="white"/>
<path d="M62.6402 7.71069C62.6259 7.79621 62.6117 7.86747 62.5974 7.95299C62.5974 7.88173 62.6117 7.79621 62.6402 7.71069Z" fill="white"/>
<path d="M59.2623 8.15257C59.134 8.10981 59.0057 8.09555 58.8774 8.06705C58.5924 8.02429 58.3216 8.0528 58.065 8.09555C57.6517 8.18107 57.2669 8.36636 56.9676 8.63716C56.6968 8.85094 56.483 9.10749 56.3405 9.42105C56.2265 9.66334 56.1409 9.93414 56.0982 10.2192C55.9272 11.5732 56.8963 12.8274 58.2503 12.9985C59.6043 13.1695 60.8586 12.2003 61.0296 10.8463C61.1864 9.63484 60.4167 8.49463 59.2623 8.15257ZM58.3786 12.0293C57.552 11.9295 56.9818 11.1741 57.0816 10.3475C57.1101 10.1479 57.1671 9.9769 57.2526 9.82012C57.5234 9.29278 58.1221 8.96497 58.7492 9.05048C58.906 9.06473 59.0485 9.10749 59.1768 9.17876C59.7611 9.4353 60.1317 10.0624 60.0462 10.718C59.9464 11.5589 59.191 12.1433 58.3786 12.0293Z" fill="white"/>
<path d="M13.312 50.6538C26.0681 63.4099 46.7202 63.4099 59.4905 50.6538" stroke="white" stroke-miterlimit="10"/>
</svg>
