<svg width="68" height="65" viewBox="0 0 68 65" fill="none" xmlns="http://www.w3.org/2000/svg">
<path d="M43.7232 15.8153C43.7232 16.2738 43.7099 16.7323 43.6435 17.1908C43.6236 17.4034 43.6036 17.6027 43.5903 17.8154C43.5903 17.9151 43.6435 17.9815 43.7565 17.9948C43.803 18.0081 43.8362 18.0081 43.8694 18.0081C44.0355 18.0214 44.1817 18.0214 44.3279 18.0214C45.411 18.0214 46.4078 17.7224 47.3447 17.1177C47.4576 17.0313 47.5772 16.9316 47.6902 16.8519C47.8032 16.7655 47.9228 16.699 48.0357 16.6193C48.1354 16.5329 48.255 16.4931 48.3613 16.4465C46.8064 15.9349 45.2648 15.6492 43.7232 15.5894C43.7232 15.6624 43.7232 15.7488 43.7232 15.8153Z" fill="white"/>
<path d="M43.5304 14.6591C43.5503 14.6591 43.5703 14.6591 43.5902 14.6591C44.3677 14.6791 45.1451 14.7588 45.9226 14.8851C46.8861 15.0379 47.8562 15.2771 48.8264 15.6027C48.8397 15.523 48.8397 15.4432 48.8463 15.3635C48.8928 14.9117 48.926 14.4664 48.9526 14.0279C48.9526 14.0212 48.9526 14.008 48.9526 14.0013C49.0257 12.6856 49.0922 11.3234 49.7766 10.0144C49.7766 10.0144 49.9626 9.66221 50.1288 9.64228C50.255 9.62234 50.4012 9.72866 50.5474 9.86156C50.8331 10.1274 51.0923 10.546 51.0923 10.546L51.1056 10.5925L51.2385 10.7254L52.3149 10.3732L52.1422 10.0941H52.1488L52.1156 10.041L49.9028 6.51255L49.5174 5.89458C49.4975 5.86136 49.4576 5.84142 49.4311 5.81484C49.3247 5.70188 49.1918 5.6155 49.039 5.59556C48.9991 5.58892 48.9593 5.60221 48.9128 5.60885C48.853 5.60885 48.7931 5.60885 48.7333 5.62214C48.2748 5.79491 47.8629 5.94774 47.4442 6.10721C46.3744 6.54578 45.371 7.03749 44.4009 7.55579C40.394 9.69544 37.2311 12.5062 34.8257 16.0944C34.7725 16.1808 34.706 16.2539 34.6529 16.3403C34.5266 16.5264 34.4336 16.739 34.3406 16.9649C35.0383 16.6061 35.7294 16.2938 36.4204 16.0147H36.4271H36.4337C37.3441 15.6492 38.261 15.3834 39.1714 15.1642C39.5435 15.0711 39.9223 14.9715 40.2944 14.905C40.2944 14.8984 40.2944 14.8984 40.2944 14.8984C41.3775 14.7123 42.4606 14.6259 43.5304 14.6591Z" fill="white"/>
<path d="M38.0417 16.4067C38.035 16.4067 38.0284 16.4133 38.0217 16.4133C38.2676 16.4997 38.5733 16.6127 38.8125 16.6924C39.0583 16.7921 39.3241 16.8917 39.57 16.9715C39.6165 16.9848 39.6497 16.9848 39.6829 16.9848C39.7494 16.9848 39.7959 16.9516 39.8158 16.8519C39.8491 16.6858 39.8823 16.5196 39.9155 16.3734C39.9288 16.2273 39.962 16.0944 39.9953 15.9615C39.9953 15.9482 40.0019 15.9216 40.0152 15.895H40.0019C39.3507 16.0279 38.6995 16.194 38.0417 16.4067Z" fill="white"/>
<path d="M18.6056 23.9552C18.6388 24.2342 18.7518 24.4934 18.9312 24.726C19.2103 25.0383 19.5093 25.1845 19.8681 25.1845C19.9346 25.1845 20.1007 25.1645 20.3465 25.118C20.5924 25.0648 20.8183 24.819 21.0177 24.3605C21.0642 24.2675 21.0841 24.1479 21.0974 24.0349C21.1174 23.9352 21.1174 23.8356 21.1174 23.7226C21.1174 23.3305 21.0509 22.9385 20.9047 22.5597C20.712 22.1278 20.3665 21.882 19.8881 21.8354H19.7884C19.3897 21.8354 19.084 22.0149 18.8515 22.3936C18.6588 22.6926 18.5591 23.0049 18.5591 23.3305V23.4767C18.5724 23.5432 18.5724 23.5963 18.5724 23.6428C18.5724 23.7558 18.5923 23.8555 18.6056 23.9552Z" fill="white"/>
<path d="M65.7508 32.9191C65.7043 32.8992 65.6578 32.8859 65.6046 32.8859C65.505 32.8859 65.4186 32.939 65.3388 33.0188C65.2525 33.1118 65.1727 33.2314 65.1063 33.3444C64.7807 33.9823 64.4019 34.5936 63.9899 35.1651C63.3122 36.1485 62.4948 36.9858 61.5247 37.6901L61.425 37.7566C61.3121 37.8562 61.1858 37.9227 61.0596 37.9626C61.013 37.916 60.9997 37.8629 60.9798 37.8164C60.9665 37.7632 60.9665 37.6968 60.9665 37.6502V37.5838C60.9001 36.3877 60.8004 35.1917 60.6542 34.0089C60.6077 33.5371 60.5612 33.0786 60.508 32.6002C60.4084 31.7629 60.3419 30.9456 60.3419 30.1083C60.3419 29.4837 60.3751 28.8458 60.4416 28.2212L60.4549 28.0218C60.4549 27.8225 60.4283 27.6298 60.3751 27.4305C60.2887 26.9387 60.0097 26.6131 59.5512 26.447C59.2654 26.3274 59.0063 26.2809 58.7272 26.2809C58.5411 26.2809 58.2953 26.3141 57.9697 26.3939C57.6574 26.4736 57.365 26.8524 57.0992 27.5235C57.0726 27.6099 57.0328 27.7095 57.0195 27.7893C56.9397 28.1348 56.8866 28.5003 56.8733 28.8591C56.8534 28.9588 56.8534 29.0584 56.8534 29.1714C56.8334 29.5502 56.8201 29.9422 56.7869 30.321C56.6739 31.7496 56.541 33.1982 56.3949 34.6401C56.3483 35.2448 56.2154 35.8561 56.036 36.4608C55.9164 36.906 55.7237 37.2981 55.4579 37.6768C55.2121 38.0024 54.9197 38.2483 54.5409 38.4144C54.3615 38.4809 54.1821 38.5141 54.016 38.5141C53.6107 38.5141 53.2784 38.2882 53.0326 37.843C52.8997 37.5971 52.8199 37.318 52.7867 37.0389C52.7402 36.7266 52.7203 36.4143 52.7203 36.102C52.7203 35.9359 52.7203 35.7897 52.7402 35.6236C52.8066 34.8528 52.8997 34.062 53.0326 33.2912C53.0791 32.9457 53.1322 32.6201 53.1787 32.2746C53.3116 31.5038 53.3582 30.733 53.3582 29.9422V29.5834C53.3382 28.9787 53.2253 28.4006 53.0126 27.8292C52.8797 27.4637 52.6671 27.158 52.388 26.8922C52.1289 26.6796 51.8631 26.5799 51.584 26.5799C51.5175 26.5799 51.3913 26.5999 51.1919 26.6464C50.9926 26.6995 50.7999 26.8922 50.6005 27.271C50.4676 27.5501 50.3879 27.8624 50.3348 28.188C50.3148 28.2544 50.3148 28.3209 50.3015 28.4006C50.2019 28.992 50.1221 29.5834 50.0557 30.1881C49.9228 31.3044 49.8563 32.4075 49.8563 33.5371C49.8563 33.6766 49.863 33.8162 49.8696 33.9557C49.8364 34.0886 49.8032 34.2215 49.7766 34.361L49.6437 35.1186C49.6105 35.298 49.5772 35.4973 49.544 35.69C49.2982 37.2183 48.6935 38.5938 47.7366 39.8231C47.3246 40.3481 46.8661 40.8066 46.3279 41.1853C45.9159 41.4644 45.4774 41.6637 44.9989 41.7767C44.8328 41.8099 44.6866 41.8232 44.5404 41.8232C44.0288 41.8232 43.6035 41.6106 43.258 41.1521C43.0453 40.873 42.8659 40.5607 42.753 40.2152C42.5403 39.6238 42.4074 39.0191 42.3277 38.4078C42.1948 37.3712 42.1284 36.3412 42.1151 35.3046C42.1151 34.288 42.1284 33.2713 42.1616 32.2679L42.1948 31.3177C42.2081 30.806 42.248 30.301 42.2745 29.7894L42.4739 26.241C42.5536 24.9586 42.7065 23.696 42.9191 22.4335C43.0653 21.5498 43.2115 20.6593 43.3311 19.7556C43.3311 19.7424 43.3311 19.7224 43.351 19.7091C43.3709 19.5297 43.3975 19.3835 43.4175 19.2972C43.4374 19.2174 43.4839 19.1842 43.5504 19.1643C43.5969 19.151 43.6633 19.151 43.7497 19.151H43.8959C43.9424 19.151 43.9956 19.151 44.062 19.1643H44.5072C45.3578 19.1643 46.2016 19.0978 47.0323 18.9317C47.5373 18.8519 48.0157 18.6858 48.4742 18.4732C48.7998 18.327 49.0789 18.0944 49.2981 17.8153C49.4776 17.5695 49.5772 17.3037 49.5772 17.0246V16.9781C49.5772 16.9249 49.5573 16.8851 49.544 16.8319L49.5639 16.8386L49.8829 14.0477C49.9427 13.0111 49.9892 12.0277 50.3281 11.0841L50.5009 11.2835L50.5208 11.3034C50.5142 11.3167 50.5075 11.3233 50.5009 11.3366C50.3879 11.5692 50.3082 11.8217 50.2749 12.0875C50.1088 13.3699 51.0192 14.5461 52.3083 14.7122C53.5907 14.8783 54.7669 13.968 54.933 12.6789C55.0725 11.536 54.3615 10.4794 53.305 10.1472L53.2585 10.0741L50.3148 5.39611C49.9228 4.76485 49.1254 4.49241 48.4277 4.74491C47.9492 4.91768 47.5107 5.07051 47.0854 5.24328C41.2977 7.61549 36.9587 11.0775 33.8621 15.8352C33.7558 15.9947 33.6628 16.1674 33.5897 16.3335C33.5897 16.3269 33.5964 16.3203 33.5964 16.3203C33.5964 16.3269 33.5897 16.3335 33.5897 16.3402C33.5897 16.3402 33.5897 16.3402 33.5897 16.3468C33.5033 16.5395 33.3505 16.6791 32.9119 17.6293C32.799 17.8619 32.7325 18.1077 32.7325 18.3669C32.7325 18.4998 32.7525 18.6327 32.779 18.7789C32.892 19.1908 33.1578 19.4699 33.5698 19.5829C33.6362 19.5962 33.7027 19.6161 33.7691 19.6161C33.9818 19.6161 34.1612 19.5031 34.2941 19.2905C34.314 19.2772 34.3273 19.244 34.3472 19.2108C34.3605 19.1775 34.4004 19.1443 34.4137 19.0978C34.9253 18.2938 35.6297 17.8818 36.5134 17.8818C36.6596 17.8818 36.7925 17.8951 36.9387 17.915C37.5966 18.0147 38.2345 18.1609 38.8724 18.3403L39.3641 18.4732C39.497 18.5064 39.5435 18.5729 39.5435 18.6858V18.7523C39.5302 18.8852 39.5302 19.0181 39.5103 19.131C39.5103 19.2108 39.5103 19.2972 39.4903 19.3769C39.4704 19.543 39.4571 19.7025 39.4438 19.8686C39.3907 20.2141 39.3641 20.5397 39.3442 20.8853C39.0983 24.0682 38.9322 27.251 38.8192 30.4539C38.8059 30.7994 38.8059 31.1449 38.8059 31.5038C38.8059 31.7696 38.8192 32.042 38.8259 32.3078C38.5268 32.2214 38.2278 32.155 37.9222 32.1483H37.6032C36.9985 32.1483 36.3872 32.2015 35.7825 32.3144C33.9286 32.6467 32.1411 33.2181 30.4334 34.0222C30.3869 34.0421 30.3404 34.0753 30.2872 34.0886C30.1743 34.1351 30.0746 34.1883 29.9749 34.2348C29.9483 34.2481 29.9151 34.2481 29.8952 34.2481C29.8154 34.2481 29.7822 34.1816 29.7623 34.0687V33.557C29.7623 32.7065 29.7955 31.8692 29.8952 31.032C29.9151 30.8659 29.9948 30.7662 30.161 30.7197C30.852 30.4738 31.4634 30.115 32.0016 29.6366C32.0481 29.5834 32.1146 29.5502 32.181 29.5037C32.2142 29.4837 32.2474 29.4505 32.2607 29.4372C33.5964 28.4338 34.5798 27.1846 35.2509 25.6762C35.5234 25.0715 35.7094 24.4469 35.7892 23.7891C35.829 23.5964 35.8423 23.397 35.8423 23.2176C35.8423 22.7724 35.7626 22.3272 35.5965 21.9019C35.1911 20.9517 34.5001 20.4932 33.4967 20.4932H33.3306C32.8721 20.5464 32.4402 20.6726 32.0481 20.9052C31.6494 21.1378 31.2906 21.4169 30.9783 21.7292C30.4666 22.2408 30.0081 22.799 29.6294 23.4037C29.0579 24.3406 28.5662 25.3373 28.1874 26.3739C27.3967 28.5202 26.905 30.7396 26.7256 33.0188C26.7123 33.2048 26.699 33.3909 26.6923 33.577C26.6325 33.6899 26.5661 33.8029 26.5129 33.9158C26.4332 34.082 26.3468 34.2481 26.2671 34.3943C25.9215 35.072 25.4763 35.6767 24.9381 36.2017C24.4597 36.6735 23.9015 37.0057 23.2636 37.2183C22.9845 37.318 22.7187 37.3645 22.4263 37.3645C22.2602 37.3645 22.1007 37.3512 21.9346 37.318C21.4562 37.205 21.1306 36.926 20.9313 36.4808C20.8116 36.1884 20.7319 35.8761 20.6987 35.5638C20.6655 35.2847 20.6655 35.0056 20.6655 34.7265C20.6655 34.5272 20.6655 34.3145 20.6787 34.1019C20.7253 33.2115 20.8116 32.3277 20.9246 31.4572C20.9379 31.3044 20.9578 31.1582 20.9711 31.012C21.0841 30.1416 21.1838 29.2578 21.2436 28.3873V28.2079C21.2436 28.075 21.2436 27.9421 21.2303 27.8292C21.2103 27.4836 21.1439 27.1381 21.0309 26.8258C20.7851 26.3008 20.4262 26.0085 19.9478 25.942C19.8814 25.9287 19.8349 25.9287 19.7684 25.9287C19.3764 25.9287 19.0175 26.1214 18.672 26.5002C18.4926 26.746 18.3464 27.0118 18.2467 27.2909C18.1005 27.663 18.0009 28.075 17.9544 28.487C17.7617 29.8027 17.662 31.1316 17.662 32.4606C17.662 32.5138 17.6686 32.5603 17.6686 32.6134C17.642 32.64 17.6088 32.6666 17.5822 32.6998C17.3696 32.959 17.1769 33.2248 16.9776 33.5039C16.4526 34.2414 15.8612 34.9325 15.2034 35.5571C15.0904 35.6701 14.9575 35.7698 14.8246 35.8827C14.7914 35.9159 14.7582 35.9359 14.725 35.9492C14.705 35.9625 14.705 35.9625 14.6917 35.9625C14.6718 35.9625 14.6386 35.9625 14.6253 35.9492C14.5921 35.9359 14.5721 35.9027 14.5588 35.8694C14.5389 35.8362 14.5389 35.803 14.5389 35.7698V35.7565C14.5256 35.6435 14.5256 35.5239 14.5256 35.4109L14.4924 34.7531C14.4658 34.2281 14.4326 33.7032 14.4126 33.1583C14.3994 32.6201 14.3794 32.0951 14.3794 31.5503C14.3794 30.6599 14.4126 29.7761 14.4791 28.8724C14.5057 28.5402 14.5389 28.2146 14.5588 27.869L14.5921 27.2444C14.5921 27.178 14.6053 27.1314 14.6053 27.065C14.6053 26.7992 14.5389 26.5533 14.4259 26.3075C14.2465 25.9287 13.9674 25.7294 13.5555 25.7161H13.3893C13.0305 25.7161 12.6651 25.7825 12.3395 25.9154C11.9939 26.0483 11.7614 26.2743 11.6484 26.6198C11.6351 26.6663 11.6152 26.6995 11.6019 26.7327C11.449 27.0916 11.3693 27.4703 11.3361 27.8624C11.3161 27.8823 11.3161 27.8823 11.3161 27.8956L11.3361 27.962C11.3361 27.982 11.3161 28.0152 11.3161 28.0285C11.3029 28.0617 11.2829 28.0949 11.2364 28.1082H11.2032C11.1899 28.1082 11.1899 28.1082 11.1832 28.0949C11.1367 28.0086 11.0703 27.9421 11.0038 27.8624C10.9905 27.8159 10.9573 27.7826 10.9241 27.7494C10.233 26.8457 9.32933 26.4005 8.19971 26.3872H8.10003C7.70799 26.3872 7.31594 26.4537 6.93718 26.5666C6.23283 26.7926 5.58828 27.1381 5.01682 27.6165C3.93371 28.5069 3.12303 29.59 2.5848 30.8858C2.19275 31.8094 1.99341 32.7596 1.99341 33.7431C1.99341 33.8959 1.99341 34.0421 2.0067 34.1883C2.05986 35.2581 2.36552 36.2615 2.9104 37.1785C3.3556 37.916 3.96029 38.4875 4.73109 38.8995C5.30255 39.1586 5.83414 39.2915 6.33915 39.2915C7.25614 39.2915 8.09339 38.8663 8.81768 37.9958C9.15656 37.5506 9.45558 37.0589 9.66822 36.5339C9.93401 35.9093 10.1599 35.2647 10.3593 34.6268C10.3726 34.5936 10.3726 34.5604 10.3726 34.5139C10.3859 34.4474 10.4191 34.361 10.4523 34.2813C10.4855 34.1949 10.5321 34.1152 10.6317 34.0487C10.645 34.0953 10.645 34.1484 10.645 34.1949C10.6649 34.2614 10.6649 34.3145 10.6649 34.361C10.6982 35.5239 10.7978 36.6934 10.9773 37.8562V37.9559C10.9972 37.9758 10.9972 38.0091 10.9972 38.0224C11.0105 38.2018 11.0304 38.348 11.0304 38.4343C11.0304 38.5207 11.0105 38.5872 10.964 38.6337C10.9108 38.6802 10.8444 38.7467 10.7314 38.8131C10.6782 38.8463 10.6118 38.8995 10.5321 38.946C9.6948 39.451 8.90406 40.0291 8.16648 40.667C7.48206 41.2584 6.89067 41.9295 6.37901 42.7003C6.00026 43.2784 5.73446 43.8831 5.55505 44.541C5.45538 44.9064 5.40886 45.252 5.40886 45.6108C5.40886 45.9032 5.44209 46.2022 5.50854 46.4946C5.78762 47.5644 6.47204 48.189 7.57509 48.4016C7.76779 48.4349 7.96714 48.4481 8.14655 48.4481C8.57182 48.4481 8.9838 48.3684 9.39578 48.2023C10.1334 47.9232 10.7713 47.5179 11.3294 46.973C11.9673 46.3484 12.4923 45.644 12.9043 44.8533C13.4159 43.8898 13.808 42.8731 14.0538 41.8033C14.3661 40.4411 14.5455 39.0789 14.5655 37.6835V37.6502C14.5655 37.3712 14.6784 37.1785 14.8911 37.0123C14.9708 36.9459 15.0373 36.8794 15.1037 36.813C15.117 36.7931 15.1502 36.7598 15.1835 36.7465C16.0872 35.9093 16.9111 35.0056 17.6487 34.0354C17.6686 34.0089 17.6886 33.9823 17.7085 33.9557C17.7085 33.9889 17.7085 34.0222 17.7085 34.0554C17.7617 34.8129 17.9078 35.5505 18.1537 36.2548C18.3331 36.7931 18.5989 37.2848 18.9577 37.73C19.6621 38.534 20.5193 38.9261 21.5027 38.9261C21.6954 38.9261 21.8748 38.9261 22.0742 38.8928C23.0443 38.7134 23.8949 38.3014 24.6192 37.6436C25.4498 36.906 26.1209 36.0688 26.6525 35.1252C26.6658 36.1552 26.7588 37.1718 26.9382 38.1885C27.1508 39.451 27.5761 40.6537 28.2007 41.7834C28.5795 42.4412 29.038 43.0259 29.5961 43.5376C30.1344 44.0293 30.7457 44.3748 31.4501 44.5742C31.7956 44.6539 32.1079 44.6872 32.4202 44.6872C33.6694 44.6872 34.6197 44.0426 35.2775 42.7801C35.4237 42.4345 35.5367 42.089 35.6031 41.7103C35.6696 41.3448 35.7028 40.9993 35.7028 40.6404C35.7028 40.0025 35.5898 39.3779 35.3905 38.7533C34.7858 36.8329 33.5233 35.5903 31.5697 35.0455H31.5564C31.5032 35.0322 31.47 35.0122 31.4235 34.9989C31.377 34.9857 31.3437 34.9325 31.3105 34.886C31.3371 34.8727 31.3703 34.8528 31.3903 34.8395C31.4368 34.8262 31.4899 34.8063 31.5364 34.793C32.7857 34.3478 34.0615 34.0554 35.3772 33.9225C36.0483 33.856 36.7061 33.8228 37.3773 33.8095C37.457 33.8095 37.5434 33.8095 37.6231 33.7962C38.0551 33.7962 38.467 33.7364 38.8857 33.65C38.972 34.8129 39.1116 35.9691 39.3242 37.1187C39.5036 38.1553 39.7827 39.1387 40.1748 40.0889C40.6 41.0923 41.2114 41.9761 41.9955 42.7136C42.5868 43.2585 43.2447 43.5376 43.9623 43.5642H44.1085C44.7664 43.5642 45.4043 43.3515 46.0156 42.9063C46.1286 42.8067 46.2615 42.7269 46.3744 42.6405C47.0323 42.2286 47.6037 41.7235 48.0954 41.1122C48.7533 40.3082 49.2782 39.4244 49.6836 38.4543C49.8895 37.9559 50.069 37.4575 50.2284 36.9525C50.2749 37.112 50.3215 37.2781 50.3813 37.4376C50.5806 38.0489 50.8929 38.5739 51.3182 39.0324C51.9295 39.6703 52.6139 40.0025 53.3715 40.0158H53.4512C54.1755 40.0158 54.8466 39.7168 55.4712 39.1453C55.8832 38.7334 56.1955 38.2749 56.4082 37.7499C56.6739 37.1452 56.8534 36.5206 56.9663 35.8628L57.066 35.3378C57.0793 35.2581 57.0926 35.1717 57.1125 35.092C57.179 35.1252 57.2255 35.1784 57.2454 35.2249C57.2587 35.278 57.2786 35.3445 57.2919 35.391V35.4375C57.458 36.2083 57.6242 36.9791 57.7703 37.7499C57.8368 38.0622 57.9032 38.3878 57.9498 38.7001C57.983 38.8928 58.0096 39.0922 58.0627 39.3048C58.0627 39.338 58.076 39.3513 58.076 39.3846C58.076 39.4842 58.0096 39.564 57.9099 39.6304L57.777 39.6969C57.7238 39.7301 57.664 39.7633 57.6109 39.7766C56.9065 40.1155 56.2487 40.4942 55.6108 40.9395C54.8998 41.4179 54.2818 41.9893 53.7369 42.6472C53.2984 43.1721 52.9661 43.7635 52.7535 44.4014C52.5874 44.8466 52.5076 45.3051 52.5076 45.7636C52.5076 45.9962 52.5408 46.2221 52.5741 46.4547C52.8997 47.8501 53.7701 48.6076 55.1988 48.7206C55.8035 48.7206 56.3616 48.5877 56.8866 48.3086C57.5112 47.983 58.0494 47.5577 58.4946 47.0129C59.0196 46.4015 59.4448 45.7503 59.7704 45.026C60.2821 43.923 60.6077 42.7734 60.7738 41.5774C60.8735 40.873 60.9399 40.1687 60.9732 39.4444V39.4111C60.9732 39.2118 61.0595 39.0789 61.239 38.9992C61.2722 38.9792 61.3054 38.946 61.3519 38.9327C61.3652 38.9194 61.3652 38.9194 61.3851 38.9194C63.0597 37.8562 64.4019 36.4608 65.4385 34.7531C65.5382 34.6069 65.6179 34.4408 65.6844 34.2614C65.8173 33.9491 65.9037 33.6235 65.9502 33.2779V33.2447C65.9502 33.0852 65.8837 32.9656 65.7508 32.9191ZM30.0679 29.7362V29.703C30.0879 29.6498 30.0879 29.5834 30.0879 29.5369C30.3204 28.075 30.6926 26.6464 31.2374 25.2509C31.4833 24.6463 31.7757 24.0549 32.1212 23.4967C32.3338 23.1645 32.5797 22.8721 32.8588 22.593C33.0382 22.4136 33.2309 22.2807 33.4635 22.181C33.5764 22.1279 33.6761 22.1146 33.7758 22.1146C34.0216 22.1146 34.201 22.2608 34.3339 22.5398C34.4336 22.7857 34.4801 23.0183 34.4801 23.2641V23.3572C34.4801 23.7492 34.427 24.128 34.314 24.4735C34.1811 24.9652 34.0017 25.437 33.7558 25.8822C32.9518 27.4039 31.8554 28.6996 30.46 29.7362C30.4467 29.7562 30.4268 29.7562 30.4135 29.7694L30.2806 29.8691C30.2673 29.8891 30.2341 29.8891 30.2008 29.9023H30.1344C30.0879 29.8824 30.0679 29.8691 30.0679 29.8359C30.0679 29.8027 30.0679 29.7694 30.0679 29.7362ZM10.7048 30.8526C10.5055 31.3974 10.3261 31.9556 10.1799 32.5271C10.1334 32.7397 10.0669 32.9523 10.0005 33.165C9.85428 33.7364 9.66157 34.2747 9.429 34.8195C9.24959 35.2581 9.01702 35.6568 8.72465 36.0156C8.5253 36.2814 8.27944 36.494 8.00036 36.6402C7.82095 36.7399 7.65483 36.7864 7.50864 36.7864C7.27607 36.7864 7.06343 36.6867 6.88402 36.4741C6.67139 36.2615 6.51191 36.0156 6.37901 35.7365C5.96703 34.9657 5.7544 34.0487 5.7544 32.9656V32.8925C5.7544 31.8559 6.03348 30.826 6.59165 29.7894C6.83751 29.3508 7.14982 28.9521 7.54186 28.6265C8.00036 28.281 8.42563 28.1016 8.83761 28.1016C9.37585 28.1016 9.85428 28.394 10.3128 28.9854C10.4257 29.1648 10.5387 29.3575 10.6384 29.5568V29.5701C10.7713 29.8027 10.8377 30.0286 10.8377 30.2612C10.8377 30.4605 10.7846 30.6532 10.7048 30.8526ZM10.7912 43.7436C10.6051 44.3483 10.3261 44.9197 9.96724 45.4646C9.6948 45.8899 9.32933 46.2553 8.90406 46.5477C8.59175 46.7603 8.24622 46.9132 7.86746 46.9597C7.78772 46.973 7.72128 46.973 7.65483 46.973C7.14317 46.973 6.78435 46.7271 6.53849 46.2487C6.42553 46.0361 6.37901 45.7902 6.35908 45.5443V45.3982C6.35908 44.8865 6.45875 44.3815 6.67139 43.9031C6.95047 43.2652 7.30929 42.6738 7.78772 42.1488C8.71136 41.1986 9.74131 40.3946 10.8909 39.7367C10.944 39.7035 10.9905 39.6902 11.0238 39.6902C11.0902 39.6902 11.1434 39.7567 11.1567 39.8896C11.1766 40.1686 11.1766 40.4278 11.1899 40.6936C11.1899 40.8132 11.1899 40.9062 11.2032 41.0192C11.1832 41.9561 11.057 42.8598 10.7912 43.7436ZM33.4103 37.019C34.1147 37.823 34.4801 38.7599 34.4934 39.7965C34.4934 40.3015 34.3804 40.7933 34.1678 41.2717C33.8688 41.8631 33.51 42.1555 33.098 42.1555C32.8056 42.1555 32.4734 41.9893 32.1146 41.697C31.769 41.3847 31.4966 41.0391 31.264 40.6471C30.872 39.956 30.5729 39.2317 30.3603 38.4609C30.1477 37.6901 29.9816 36.8994 29.9018 36.0954V36.0156C29.9018 35.9492 29.9217 35.9027 29.935 35.8694C29.9683 35.8362 30.0347 35.8163 30.1477 35.803C31.6029 35.803 32.686 36.215 33.4103 37.019ZM48.0356 16.6193C47.9227 16.699 47.8031 16.7655 47.6901 16.8518C47.5771 16.9316 47.4575 17.0313 47.3446 17.1176C46.4076 17.7223 45.4109 18.0213 44.3278 18.0213C44.1816 18.0213 44.0354 18.0213 43.8693 18.0081C43.8361 18.0081 43.8029 18.0081 43.7563 17.9948C43.6434 17.9815 43.5902 17.915 43.5902 17.8153C43.6035 17.6027 43.6234 17.4034 43.6434 17.1907C43.7098 16.7322 43.7231 16.2737 43.7231 15.8152C43.7231 15.7488 43.7231 15.6624 43.7231 15.5893C45.2647 15.6425 46.8063 15.9349 48.3612 16.4465C48.2483 16.493 48.1353 16.5329 48.0356 16.6193ZM48.3745 16.4399C48.6004 16.513 48.8264 16.5661 49.0456 16.6459C48.8197 16.5661 48.5938 16.513 48.3745 16.4399ZM53.1854 11.104C53.7369 11.3433 54.0824 11.9347 54.0027 12.5593C53.903 13.3301 53.1987 13.8816 52.4212 13.7819C51.6438 13.6822 51.0989 12.9779 51.1986 12.2004C51.2252 12.0144 51.2783 11.8549 51.3647 11.7087C51.6239 11.2104 52.1887 10.9047 52.7801 10.9778C52.9262 10.9977 53.0658 11.0309 53.1854 11.104ZM39.9954 15.9614C39.9621 16.0943 39.9289 16.2272 39.9156 16.3734C39.8824 16.5196 39.8492 16.6857 39.8159 16.8518C39.796 16.9515 39.7495 16.9847 39.683 16.9847C39.6498 16.9847 39.6166 16.9847 39.5701 16.9715C39.3242 16.8917 39.0584 16.792 38.8126 16.6924C38.5734 16.6126 38.2677 16.4997 38.0218 16.4133C38.0285 16.4133 38.0351 16.4066 38.0418 16.4066C38.6996 16.194 39.3508 16.0279 40.002 15.895H40.0153C40.002 15.9216 39.9954 15.9481 39.9954 15.9614ZM40.2944 14.8983C40.2944 14.8983 40.2944 14.8983 40.2944 14.9049C39.9223 14.9714 39.5435 15.071 39.1714 15.1641C38.261 15.3833 37.3441 15.6491 36.4337 16.0146H36.4271H36.4204C35.7294 16.2937 35.0383 16.606 34.3406 16.9648C34.4336 16.7389 34.5266 16.5262 34.6529 16.3402C34.706 16.2538 34.7725 16.1807 34.8257 16.0943C37.2311 12.5061 40.394 9.69533 44.4009 7.55569C45.371 7.03739 46.3744 6.54567 47.4442 6.10711C47.8629 5.94763 48.2748 5.7948 48.7333 5.62204C48.7931 5.60875 48.8529 5.60875 48.9128 5.60875C48.9593 5.6021 48.9991 5.58881 49.039 5.59546C49.1918 5.61539 49.3247 5.70177 49.431 5.81474C49.4576 5.84132 49.4975 5.86125 49.5174 5.89447L49.9028 6.51245L52.1156 10.0409L52.1488 10.094H52.1422L52.3149 10.3731L51.2385 10.7253L51.1056 10.5924L51.0923 10.5459C51.0923 10.5459 50.8331 10.1272 50.5474 9.86146C50.4012 9.72856 50.255 9.62224 50.1288 9.64217C49.9626 9.66211 49.7766 10.0143 49.7766 10.0143C49.0922 11.3233 49.0257 12.6855 48.9526 14.0012C48.9526 14.0078 48.9526 14.0211 48.9526 14.0278C48.926 14.4663 48.8928 14.9115 48.8463 15.3634C48.8397 15.4431 48.8397 15.5229 48.8264 15.6026C47.8562 15.277 46.8861 15.0378 45.9226 14.885C45.1451 14.7587 44.3677 14.679 43.5902 14.659C43.5703 14.659 43.5503 14.659 43.5304 14.659C42.4606 14.6258 41.3775 14.7122 40.2944 14.8983ZM58.2621 41.883C58.2621 42.7867 58.1358 43.6904 57.87 44.5609C57.6906 45.139 57.4115 45.6639 57.066 46.1557C56.7869 46.5544 56.4613 46.88 56.0493 47.1258C55.85 47.2454 55.6373 47.3451 55.4247 47.3916C55.2586 47.4248 55.0925 47.4581 54.9463 47.4581C54.3881 47.4581 53.9429 47.179 53.6173 46.6208C53.4645 46.3417 53.3715 46.0294 53.3515 45.7038V45.4712C53.3515 44.933 53.4844 44.4081 53.7768 43.9296C54.0094 43.5642 54.2685 43.2386 54.5808 42.9263C55.4978 41.9893 56.5543 41.2385 57.7504 40.6936C57.8368 40.6604 57.9165 40.6271 58.0162 40.5939C58.0494 40.5939 58.0627 40.5806 58.0827 40.5806C58.1491 40.5806 58.1956 40.6338 58.2156 40.7135C58.2288 40.9594 58.2488 41.2052 58.2621 41.4511V41.883Z" fill="white"/>
<path d="M9.90747 50.4478C21.948 62.4882 41.4307 62.4882 53.4645 50.4478" stroke="white" stroke-miterlimit="10"/>
<path d="M35.0449 22.7387C35.1247 22.4397 35.4037 22.2337 35.716 22.2404C36.7194 22.2603 37.776 22.2603 38.7993 22.247C40.0153 22.2204 41.2379 22.1939 42.4672 22.1075C43.6899 22.0277 44.9192 21.9015 46.1418 21.7553C46.7598 21.6955 47.3645 21.5892 47.9891 21.5227C48.4011 21.4629 48.8197 21.4031 49.2383 21.35C49.5839 21.3035 49.9095 21.5227 49.9892 21.8483C50.0756 22.1806 49.8829 22.5261 49.544 22.6324C49.1387 22.7653 48.7267 22.8916 48.3147 23.0045C47.6967 23.164 47.0788 23.3235 46.4475 23.4564C45.1916 23.7155 43.9224 23.9149 42.6333 24.0345C41.3509 24.1475 40.0485 24.2139 38.7527 24.1275C37.6563 24.0478 36.5865 23.9215 35.5034 23.5959C35.1512 23.4896 34.9386 23.1441 35.0316 22.7985L35.0449 22.7387Z" fill="white"/>
</svg>
